<svg fill="none" height="100%" width="100%" viewBox="0 0 500 500" xmlns:xlink="http://www.w3.org/1999/xlink" xmlns="http://www.w3.org/2000/svg"><g id="i0"><g transform="translate(152.085,194.295)"><g transform="rotate(-7)"><animateTransform repeatCount="indefinite" type="rotate" attributeName="transform" dur="7.241s" begin="0s" calcMode="spline" values="0; -7; 0; -7; 0; -7; 0; -7" keyTimes="0; 0.165899; 0.413208; 0.667391; 0.914705; 1; 1; 1" keySplines="0.333 0 0.667 1; 0.333 0 0.667 1; 0.333 0 0.667 1; 0.333 0 0.667 1; 0.333 0 0.667 1; 0.333 0 0.667 1; 0.167 0 0.667 1" fill="freeze" /><g transform="scale(1,1) translate(-152.085,-194.295)"><g id="i1" transform="matrix(1,0,0,1,171.585,161.295)"><g id="i2"><path fill="#e69f82" d="M32.63,-28.251C32.63,-28.251,32.408,-31.249,29.41,-35.47C26.409,-39.691,13.524,-50.248,2.58,-49.801C-8.361,-49.357,-16.804,-44.024,-22.803,-36.527C-28.802,-29.028,-30.111,-21.883,-29.911,-16.641C-29.578,-7.866,-25.468,-5.312,-28.569,7.307C-28.569,7.307,32.63,-28.251,32.63,-28.251ZM33.803,-4.796C33.62,-6.058,36.238,-8.676,36.238,-10.027C36.238,-11.38,33.171,-25.544,32.63,-28.251C32.63,-28.251,-28.569,7.307,-28.569,7.307C-30.707,9.786,-37.605,16.605,-37.605,16.605C-37.605,16.605,-12.495,49.815,-12.495,49.815C-12.245,49.466,-3.045,39.233,1.506,33.381C5.214,28.616,8.54,24.345,8.54,24.345C8.54,24.345,11.366,25.953,14.303,27.329C15.595,27.934,16.91,28.496,18.014,28.854C21.622,30.027,23.969,30.388,24.601,30.208C25.231,30.028,27.216,27.232,28.209,22.991C29.202,18.75,30.824,12.347,31.637,11.174C32.45,10.001,33.983,10.453,34.613,10.633C35.245,10.813,37.32,8.827,37.592,7.926C37.861,7.022,33.983,-3.531,33.803,-4.796Z" /></g></g><g id="i3" transform="matrix(1,0,0,1,172.934,140.455)"><g id="i2"><path fill="#2b2f53" d="M-29.917,28.148C-29.917,28.148,-24.707,27.806,-21.319,28.75C-17.931,29.694,-18.763,27.583,-16.264,23.862C-13.764,20.14,-11.987,17.697,-5.877,16.808C-5.877,16.808,-6.266,13.365,-4.711,11.365C-3.156,9.365,0.94,9.372,2.788,13.531C3.01,14.031,1.945,16.475,2.343,21.251C2.399,21.918,6.453,22.64,6.842,22.196C7.231,21.752,6.787,15.919,8.842,12.92C10.897,9.921,13.23,7.754,15.341,6.31C17.452,4.866,19.557,3.159,20.779,-6.284C21.014,-8.102,26.449,-8.687,31.28,-7.411C31.28,-7.411,31.059,-10.408,28.06,-14.63C25.061,-18.852,12.174,-29.405,1.232,-28.961C-9.71,-28.517,-18.153,-23.185,-24.152,-15.686C-30.151,-8.187,-31.46,-1.042,-31.261,4.199C-30.928,12.975,-26.818,15.531,-29.917,28.148Z" /></g></g><g id="i4" transform="matrix(1,0,0,1,198.8,148.765)"><g id="i2"><path fill="#2b2f53" d="M-6.655,2.727C-4.099,-0.306,-2.907,-1.26,-2.294,-1.498C-1.681,-1.737,5.101,-2.792,5.748,-2.724C6.395,-2.656,7.212,1.228,6.122,1.194C5.032,1.16,0.534,0.649,-0.488,0.717C-1.51,0.785,-4.611,1.705,-6.655,2.727Z" /></g></g><g id="i5" transform="matrix(1,0,0,1,176.701,179.203)"><g id="i2"><path fill="#2b2f53" d="M3.423,6.823C3.351,6.823,3.279,6.803,3.214,6.761C-0.41,4.411,-2.788,-0.406,-3.538,-4.137C-3.703,-4.942,-3.794,-5.714,-3.809,-6.429C-3.813,-6.642,-3.645,-6.818,-3.432,-6.822C-3.219,-6.836,-3.043,-6.658,-3.039,-6.445C-3.025,-5.776,-2.939,-5.051,-2.783,-4.29C-2.065,-0.716,0.197,3.886,3.633,6.114C3.812,6.23,3.863,6.468,3.747,6.647C3.673,6.761,3.549,6.823,3.423,6.823Z" /></g></g><g id="i6" transform="matrix(1,0,0,1,174.871,166.193)"><g id="i2"><path fill="#2b2f53" d="M-0.405,4.873C-0.418,4.873,-0.431,4.872,-0.444,4.871C-0.656,4.85,-0.81,4.661,-0.789,4.449C-0.783,4.39,-0.193,-1.526,0.021,-4.515C0.036,-4.727,0.223,-4.888,0.433,-4.872C0.645,-4.857,0.805,-4.672,0.79,-4.46C0.575,-1.46,-0.016,4.466,-0.022,4.526C-0.042,4.725,-0.209,4.873,-0.405,4.873Z" /></g></g><g id="i7" transform="matrix(1,0,0,1,169.436,161.728)"><g id="i2"><path fill="#2b2f53" d="M2.38,4.851C2.304,4.851,2.228,4.828,2.161,4.782C-0.24,3.121,-2.45,-1.011,-2.764,-4.43C-2.783,-4.642,-2.627,-4.83,-2.415,-4.849C-2.205,-4.868,-2.016,-4.713,-1.996,-4.501C-1.7,-1.28,0.361,2.601,2.599,4.149C2.774,4.27,2.818,4.51,2.697,4.685C2.622,4.793,2.502,4.851,2.38,4.851Z" /></g></g><g id="i8" transform="matrix(1,0,0,1,200.086,156.229)"><g id="i2"><path fill="#2b2f53" d="M-1.439,0C-1.439,0.795,-0.795,1.439,0,1.439C0.795,1.439,1.439,0.795,1.439,0C1.439,-0.795,0.795,-1.439,0,-1.439C-0.795,-1.439,-1.439,-0.795,-1.439,0Z" /></g></g><g id="i9" transform="matrix(1,0,0,1,198.91,155.098)"><g id="i2"><path fill="#2b2f53" d="M0.961,1.247C0.375,1.247,-0.248,1.033,-0.774,0.64C-1.324,0.229,-1.666,-0.306,-1.712,-0.828C-1.731,-1.04,-1.574,-1.227,-1.362,-1.246C-1.15,-1.264,-0.964,-1.108,-0.945,-0.896C-0.919,-0.597,-0.682,-0.253,-0.312,0.023C0.17,0.383,0.768,0.547,1.252,0.449C1.461,0.406,1.664,0.541,1.706,0.75C1.748,0.959,1.614,1.162,1.405,1.204C1.261,1.233,1.112,1.247,0.961,1.247Z" /></g></g><g id="i10" transform="matrix(1,0,0,1,202.91,170.092)"><g id="i2"><path fill="#2b2f53" d="M1.599,1.441C1.509,1.441,1.418,1.41,1.345,1.346C-0.158,0.033,-1.743,-0.698,-1.759,-0.705C-1.953,-0.793,-2.038,-1.021,-1.95,-1.215C-1.862,-1.408,-1.633,-1.494,-1.439,-1.406C-1.37,-1.375,0.262,-0.625,1.853,0.765C2.013,0.905,2.029,1.149,1.889,1.309C1.813,1.396,1.706,1.441,1.599,1.441Z" /></g></g><g id="i11" transform="matrix(1,0,0,1,201.765,169.446)"><g id="i2"><path fill="#2b2f53" d="M1.427,0.686C-0.389,1.264,-1.816,0.386,-1.331,-0.542C-0.858,-1.448,0.886,-0.295,1.427,0.686Z" /></g></g><g id="i12" transform="matrix(1,0,0,1,194.944,173.215)"><g id="i2"><path fill="#2b2f53" d="M-0.916,0.49C-1.07,0.49,-1.216,0.397,-1.275,0.245C-1.352,0.047,-1.254,-0.177,-1.056,-0.254C-0.268,-0.561,0.895,-0.483,0.944,-0.479C1.156,-0.464,1.315,-0.279,1.3,-0.067C1.285,0.145,1.1,0.303,0.889,0.29C0.879,0.289,-0.15,0.22,-0.776,0.464C-0.822,0.482,-0.87,0.49,-0.916,0.49Z" /></g></g><g id="i13" transform="matrix(1,0,0,1,198.167,175.813)"><g id="i2"><path fill="#2b2f53" d="M3.222,2.481C3.112,2.481,3.002,2.433,2.926,2.342C2.481,1.809,1.745,1.459,0.677,1.271C-0.541,1.057,-2.678,0.027,-3.573,-1.935C-3.661,-2.129,-3.576,-2.358,-3.382,-2.446C-3.188,-2.534,-2.959,-2.449,-2.871,-2.255C-2.099,-0.564,-0.246,0.326,0.811,0.512C2.066,0.733,2.951,1.17,3.518,1.848C3.654,2.011,3.632,2.254,3.469,2.391C3.397,2.451,3.309,2.481,3.222,2.481Z" /></g></g><g id="i14" transform="matrix(1,0,0,1,196.555,178.85)"><g id="i2"><path fill="#2b2f53" d="M1.264,0.873C0.978,0.873,-0.753,0.67,-1.552,-0.232C-1.693,-0.391,-1.678,-0.635,-1.519,-0.776C-1.36,-0.917,-1.116,-0.902,-0.975,-0.743C-0.422,-0.118,0.961,0.102,1.264,0.102C1.477,0.102,1.649,0.275,1.649,0.488C1.649,0.701,1.477,0.873,1.264,0.873Z" /></g></g><g id="i2" transform="matrix(1,0,0,1,175.585,184.833)"><g id="i2"><path fill="#2b2f53" d="M4.54,0.807C4.54,0.807,1.214,5.078,-2.494,9.843C-3.656,5.636,-4.704,1.112,-4.518,-0.075C-4.194,-2.152,-2.479,-8.298,-2.044,-9.843C-1.301,-6.143,1.007,-1.484,4.54,0.807Z" /></g></g></g></g></g></g><g id="i15"><g transform="translate(186.838,268.867)"><g transform="rotate(1)"><animateTransform repeatCount="indefinite" type="rotate" attributeName="transform" dur="7.241s" begin="0s" calcMode="spline" values="1; 1; -8; 1; -8; 1; -3; 1" keyTimes="0; 0.165899; 0.413208; 0.674262; 0.914704; 1; 1; 1" keySplines="0 0 1 1; 0.333 0 0.667 1; 0.333 0 0.667 1; 0.333 0 0.667 1; 0.333 0 0.667 1; 0.333 0 0.667 1; 0.167 0 0.667 1" fill="freeze" /><g transform="scale(1,1) translate(-186.838,-268.867)"><g id="i3" transform="matrix(1,0,0,1,257.852,201.418)"><g id="i2"><path fill="#ee5f80" d="M12.457,-6.14C12.457,-6.14,11.214,-5.458,11.175,-4.937C11.133,-4.416,11.131,-3.331,11.131,-3.331C9.126,0.854,2.078,9.086,-4.173,6.801C-5.232,6.413,-6.508,5.661,-7.717,4.712C-7.345,4.268,-7.024,3.842,-6.883,3.542C-6.453,2.624,-7.97,-1.042,-8.142,-0.984C-8.239,-0.953,-9.578,0.422,-10.74,1.62C-11.228,0.935,-11.6,0.239,-11.8,-0.435C-13.054,-4.662,-12.135,-7.116,-12.091,-7.194C-12.091,-7.194,-10.108,-7.108,-10.108,-7.108C-10.652,-6.936,-10.954,-6.742,-10.954,-6.54C-10.954,-5.761,-6.469,-5.128,-0.936,-5.128C3.998,-5.128,8.097,-5.63,8.929,-6.293C8.929,-6.293,12.457,-6.14,12.457,-6.14Z" /></g></g><g id="i4" transform="matrix(1,0,0,1,221.585,239.404)"><g id="i2"><path fill="#e69f82" d="M-35.63,11.311C-35.63,11.311,-24.831,6.24,-20.027,3.136C-9.435,-3.709,2.151,-13.355,2.89,-14.027C3.629,-14.699,6.251,-19.47,6.99,-21.419C7.729,-23.368,9.678,-25.788,11.358,-28.543C13.038,-31.298,15.794,-36.003,16.399,-37.078C17.004,-38.153,20.632,-39.9,25.471,-42.723C25.471,-42.723,25.203,-39.632,26.278,-38.422C26.278,-38.422,27.896,-39.968,28.364,-40.102C28.832,-40.236,30.848,-36.07,30.243,-34.121C30.243,-34.121,32.393,-30.56,37.837,-32.979C37.837,-32.979,38.375,-27.669,38.173,-26.863C37.971,-26.057,36.09,-25.048,36.09,-25.048C36.09,-25.048,36.225,-21.621,36.023,-20.882C35.821,-20.143,31.041,-17.606,29.974,-17.118C28.364,-16.381,27.85,-17.108,27.85,-17.108C27.85,-17.108,26.784,-13.536,25.237,-10.677C23.69,-7.818,22.097,-7.725,19.238,-7.584C16.379,-7.443,15.63,-7.49,14.786,-6.412C13.942,-5.334,6.865,4.508,0.819,11.538C-5.227,18.568,-10.101,25.13,-13.335,29.301C-16.569,33.472,-21.852,38.975,-25.553,41.21C-25.553,41.21,-33.875,47.576,-34.685,34.196C-35.01,28.824,-36.786,19.954,-37.745,18.356C-39.545,15.356,-35.63,11.311,-35.63,11.311Z" /></g></g><g id="i5" transform="matrix(1,0,0,1,241.288,205.958)"><g id="i2"><path fill="#2b2f53" d="M-6.575,5.362C-6.725,5.362,-6.868,5.273,-6.93,5.126C-7.013,4.93,-6.921,4.704,-6.725,4.621C-3.459,3.242,2.262,-1.092,6.299,-5.245C6.447,-5.398,6.691,-5.401,6.844,-5.253C6.997,-5.105,6.999,-4.861,6.851,-4.708C2.685,-0.422,-3.022,3.894,-6.425,5.331C-6.474,5.352,-6.525,5.362,-6.575,5.362Z" /></g></g><g id="i6" transform="matrix(1,0,0,1,245.286,215.107)"><g id="i2"><path fill="#2b2f53" d="M-6.542,10.209C-6.653,10.209,-6.763,10.162,-6.839,10.07C-6.975,9.906,-6.952,9.663,-6.788,9.527C-3.085,6.455,-1.918,-0.094,-1.648,-2.028C-1.633,-2.135,-1.574,-2.231,-1.485,-2.292C-1.434,-2.327,3.619,-5.833,6.215,-10.027C6.327,-10.208,6.565,-10.264,6.745,-10.152C6.926,-10.04,6.982,-9.802,6.87,-9.621C4.402,-5.633,-0.047,-2.365,-0.908,-1.754C-1.229,0.435,-2.483,6.956,-6.296,10.12C-6.368,10.18,-6.455,10.209,-6.542,10.209Z" /></g></g><g id="i7" transform="matrix(1,0,0,1,249.933,219.953)"><g id="i2"><path fill="#2b2f53" d="M-0.498,2.729C-0.597,2.729,-0.697,2.691,-0.772,2.615C-1.784,1.595,-1.592,0.553,-1.388,0.022C-1.267,-0.293,-0.085,-1.582,0.885,-2.608C1.031,-2.763,1.275,-2.769,1.43,-2.623C1.585,-2.477,1.591,-2.233,1.445,-2.078C0.493,-1.071,-0.561,0.099,-0.676,0.315C-0.836,0.734,-0.895,1.396,-0.224,2.072C-0.074,2.223,-0.076,2.467,-0.227,2.617C-0.302,2.692,-0.4,2.729,-0.498,2.729Z" /></g></g><g id="i8" transform="matrix(1,0,0,1,254.003,213.25)"><g id="i2"><path fill="#2b2f53" d="M-1.961,5.073C-2.108,5.073,-2.268,5.067,-2.44,5.052C-3.055,4.999,-3.525,4.656,-3.797,4.059C-4.25,3.067,-4.048,1.574,-3.696,1.09C-3.283,0.522,1.14,-3.106,1.644,-3.516C1.661,-3.589,1.694,-3.86,1.544,-4.612C1.502,-4.821,1.637,-5.024,1.846,-5.066C2.056,-5.108,2.258,-4.972,2.3,-4.763C2.512,-3.703,2.469,-3.174,2.153,-2.937C1.891,-2.739,-2.751,1.101,-3.073,1.543C-3.225,1.752,-3.45,2.961,-3.095,3.739C-2.938,4.082,-2.709,4.255,-2.374,4.284C-1.29,4.376,-0.949,4.133,-0.432,3.765C-0.253,3.638,-0.051,3.493,0.197,3.354C1.31,2.731,3.392,0.84,3.413,0.821C3.57,0.678,3.815,0.689,3.958,0.846C4.101,1.003,4.089,1.248,3.932,1.391C3.844,1.471,1.763,3.362,0.574,4.027C0.363,4.145,0.187,4.27,0.016,4.392C-0.474,4.741,-0.94,5.073,-1.961,5.073ZM1.638,-3.493C1.638,-3.493,1.638,-3.493,1.638,-3.493C1.638,-3.493,1.638,-3.493,1.638,-3.493ZM1.69,-3.553C1.686,-3.55,1.683,-3.547,1.68,-3.544C1.686,-3.549,1.689,-3.552,1.69,-3.553Z" /></g></g><g id="i9" transform="matrix(1,0,0,1,246.275,229.786)"><g id="i2"><path fill="#505c7b" d="M7.982,9.735C7.37,9.735,6.608,9.699,5.655,9.612C3.373,9.404,0.6,8.942,-1.408,8.435C-4.408,7.678,-9.283,5.764,-10.415,3.593C-10.689,3.068,-10.734,2.554,-10.549,2.066C-10.154,1.023,-8.169,0.489,-6.917,0.564C-5.748,0.634,-3.039,0.365,-2.024,-0.404C-0.951,-1.217,0.176,-3.983,2.42,-9.495C2.474,-9.627,2.595,-9.718,2.737,-9.733C2.879,-9.748,3.017,-9.683,3.097,-9.565C3.432,-9.067,3.912,-8.585,4.083,-8.573C4.373,-8.559,5.138,-8.856,5.589,-9.077C5.731,-9.146,5.9,-9.122,6.017,-9.016C6.134,-8.91,6.174,-8.744,6.119,-8.596C6.094,-8.529,3.604,-1.846,3.403,0.195C3.215,2.104,3.77,2.545,6.102,4.397C6.742,4.905,7.409,5.376,7.997,5.791C9.777,7.048,11.064,7.956,10.545,9.029C10.433,9.26,10.203,9.735,7.982,9.735ZM-7.167,1.327C-8.273,1.327,-9.636,1.832,-9.828,2.339C-9.828,2.339,-9.828,2.339,-9.828,2.339C-9.933,2.617,-9.902,2.911,-9.732,3.237C-8.866,4.897,-4.724,6.804,-1.22,7.688C3.127,8.784,9.337,9.344,9.855,8.686C10.085,8.209,8.798,7.3,7.553,6.421C6.956,6,6.28,5.522,5.623,5C3.283,3.142,2.407,2.446,2.636,0.119C2.804,-1.593,4.403,-6.135,5.09,-8.028C4.725,-7.896,4.319,-7.784,4.032,-7.804C3.624,-7.831,3.195,-8.218,2.88,-8.581C0.686,-3.195,-0.362,-0.696,-1.559,0.211C-2.796,1.149,-5.737,1.408,-6.964,1.333C-7.03,1.329,-7.098,1.327,-7.167,1.327ZM-10.189,2.203C-10.189,2.203,-10.186,2.203,-10.186,2.203C-10.186,2.203,-10.189,2.203,-10.189,2.203Z" /></g></g><g id="i10" transform="matrix(1,0,0,1,253.253,207.728)"><g id="i2"><path fill="#505c7b" d="M1.588,1.073C1.58,1.073,1.572,1.073,1.564,1.072C1.461,1.066,-0.963,0.904,-1.905,-0.47C-2.025,-0.646,-1.98,-0.886,-1.805,-1.006C-1.629,-1.126,-1.389,-1.082,-1.269,-0.906C-0.54,0.157,1.59,0.302,1.611,0.303C1.823,0.316,1.985,0.5,1.972,0.712C1.959,0.916,1.79,1.073,1.588,1.073Z" /></g></g><g id="i11" transform="matrix(1,0,0,1,253.764,210.962)"><g id="i2"><path fill="#505c7b" d="M-2.137,4.103C-2.237,4.103,-2.296,4.044,-2.37,3.97C-2.529,3.811,-2.52,3.73,-2.414,2.755C-2.263,1.373,-1.949,-1.501,-2.315,-3.653C-2.351,-3.863,-2.21,-4.062,-2,-4.098C-1.789,-4.134,-1.591,-3.992,-1.555,-3.782C-1.171,-1.524,-1.493,1.423,-1.648,2.839C-1.65,2.856,-1.651,2.873,-1.653,2.89C-0.862,2.226,0.562,0.96,1.847,-0.208C2.004,-0.351,2.249,-0.339,2.392,-0.182C2.535,-0.024,2.524,0.22,2.366,0.363C-1.005,3.428,-1.801,4.103,-2.137,4.103Z" /></g></g><g id="i12" transform="matrix(1,0,0,1,262.935,203.284)"><g id="i2"><path fill="#505c7b" d="M-6.092,5.664C-6.275,5.664,-6.438,5.533,-6.471,5.346C-6.508,5.136,-6.369,4.936,-6.159,4.899C-4.974,4.688,1.167,3.2,5.751,-5.459C5.851,-5.647,6.085,-5.718,6.272,-5.619C6.46,-5.519,6.532,-5.286,6.432,-5.098C2.751,1.854,-2.416,5.017,-6.024,5.658C-6.047,5.662,-6.07,5.664,-6.092,5.664Z" /></g></g><g id="i13" transform="matrix(1,0,0,1,250.202,185.162)"><g id="i2"><path fill="#505c7b" d="M-4.15,16.206C-4.329,16.206,-4.489,16.08,-4.527,15.898C-5.386,11.729,-5.255,9.49,-3.967,6.315C-3.812,5.932,-3.614,5.452,-3.381,4.888C-1.737,0.9,1.684,-7.398,4.319,-15.934C4.382,-16.137,4.598,-16.251,4.801,-16.189C5.004,-16.126,5.119,-15.91,5.056,-15.707C2.41,-7.137,-1.02,1.183,-2.668,5.182C-2.9,5.745,-3.097,6.222,-3.252,6.604C-4.488,9.65,-4.605,11.699,-3.772,15.742C-3.729,15.95,-3.863,16.155,-4.071,16.198C-4.097,16.203,-4.124,16.206,-4.15,16.206Z" /></g></g><g id="i14" transform="matrix(1,0,0,1,261.626,170.402)"><g id="i2"><path fill="#505c7b" d="M4.991,1.795C4.883,1.795,4.77,1.794,4.652,1.792C3.335,1.767,1.61,1.595,-0.206,1.309C-2.022,1.023,-3.717,0.656,-4.978,0.275C-6.847,-0.289,-7.185,-0.691,-7.117,-1.121C-7.049,-1.551,-6.602,-1.828,-4.652,-1.792C-3.335,-1.767,-1.61,-1.595,0.206,-1.309C2.022,-1.023,3.717,-0.656,4.978,-0.275C6.847,0.289,7.185,0.691,7.117,1.121C7.054,1.525,6.656,1.795,4.991,1.795ZM-6.111,-0.963C-5.36,-0.576,-3.211,0.055,-0.086,0.547C3.039,1.039,5.277,1.1,6.111,0.963C5.36,0.576,3.211,-0.055,0.086,-0.547C-3.038,-1.039,-5.277,-1.101,-6.111,-0.963Z" /></g></g><g id="i2" transform="matrix(1,0,0,1,256.916,194.385)"><g id="i2"><path fill="#ee5f80" d="M8.063,0C8.063,0.642,4.453,1.163,0,1.163C-4.453,1.163,-8.063,0.642,-8.063,0C-8.063,-0.642,-4.453,-1.163,0,-1.163C4.453,-1.163,8.063,-0.642,8.063,0Z" /></g></g></g></g></g></g><g transform="matrix(1,0,0,1,0,0)" id="i16"><g id="i17" transform="matrix(1,0,0,1,225.107,183.046)"><g id="i2"><path fill="#ee5f80" d="M-6.966,5.397C-7.5,6.714,-4.342,6.984,-1.582,6.511C1.178,6.038,5.605,-0.116,6.353,-2.358C7.1,-4.601,7.388,-6.728,6.353,-6.728C4.23,-6.728,-4.438,-0.843,-6.966,5.397Z" /></g></g><g id="i18" transform="matrix(1,0,0,1,221.565,181.55)"><g id="i2"><path fill="#ee5f80" d="M-3.424,6.893C-2.686,7.444,0.89,1.287,4.938,-1.491C4.938,-1.491,0.057,-5.657,-3.872,-6.927C-3.872,-6.927,-6.548,4.562,-3.424,6.893Z" /></g></g><g id="i19" transform="matrix(1,0,0,1,224.324,176.152)"><g id="i2"><path fill="#ee5f80" d="M-6.628,-2.23C-7.127,-1.83,-7.15,-0.907,-5.391,-0.057C-3.632,0.793,1.313,4.557,1.313,4.557C1.313,4.557,4.557,2.03,6.921,0.903C6.921,0.903,4.832,-3.466,4.145,-4.016C3.458,-4.566,-2.615,-5.446,-6.628,-2.23Z" /></g></g><g id="i20" transform="matrix(1,0,0,1,351.858,284.34)"><g id="i2"><path fill="#fbc89f" d="M-42.903,27.001C-39.042,26.939,-35.867,26.877,-34.746,27.624C-33.625,28.371,-26.09,36.528,-24.284,38.77C-24.284,38.77,-16.625,35.159,-10.336,30.364C-4.047,25.569,1.619,20.401,4.795,16.976C7.971,13.551,12.143,9.69,16.128,6.577C20.113,3.464,21.857,1.471,22.791,-2.763C23.725,-6.997,24.721,-11.605,26.402,-19.887C28.083,-28.169,33.367,-55.133,33.367,-55.133C33.367,-55.133,47.636,-58.106,60.152,-56.549C60.152,-56.549,56.291,-41.557,54.61,-34.396C52.929,-27.235,49.318,-13.286,47.761,-7.682C46.204,-2.078,44.709,1.72,44.709,3.401C44.709,5.082,43.88,12.162,42.779,13.24C41.397,14.594,40.973,14.423,38.794,17.848C36.615,21.273,28.23,28.496,16.793,36.217C5.356,43.938,1.308,45.744,-0.934,46.491C-3.176,47.238,-4.981,48.111,-9.651,51.162C-14.321,54.213,-23.101,61.56,-28.892,52.967C-28.892,52.967,-33.625,56.08,-40.101,50.912C-46.577,45.744,-60.089,40.389,-60.151,39.766C-60.213,39.143,-56.353,29.741,-42.903,27.001Z" /></g></g><g id="i21" transform="matrix(1,0,0,1,0,0)"><g id="i11" transform="matrix(1,0,0,1,378.822,286.179)"><g id="i2"><path fill="#2b2f53" d="M-3.674,0.53C-3.861,0.53,-4.026,0.394,-4.055,0.203C-4.087,-0.008,-3.941,-0.204,-3.731,-0.236C0.556,-0.887,3.625,-0.259,3.753,-0.232C3.961,-0.188,4.095,0.016,4.051,0.224C4.007,0.432,3.803,0.564,3.594,0.522C3.564,0.516,0.524,-0.104,-3.615,0.526C-3.635,0.529,-3.655,0.53,-3.674,0.53Z" /></g></g><g id="i12" transform="matrix(1,0,0,1,312.89,315.348)"><g id="i2"><path fill="#2b2f53" d="M-2.985,0.56C-3.167,0.56,-3.33,0.43,-3.364,0.245C-3.403,0.036,-3.264,-0.165,-3.055,-0.204C-0.696,-0.643,2.542,-0.571,3.023,-0.523C3.235,-0.502,3.389,-0.314,3.368,-0.102C3.347,0.11,3.159,0.267,2.947,0.243C2.387,0.187,-0.752,0.151,-2.914,0.553C-2.938,0.558,-2.962,0.56,-2.985,0.56Z" /></g></g><g id="i13" transform="matrix(1,0,0,1,308.596,322.04)"><g id="i2"><path fill="#2b2f53" d="M-6.441,3.293C-6.554,3.293,-6.666,3.243,-6.742,3.147C-6.874,2.981,-6.848,2.738,-6.681,2.606C-3.279,-0.101,0.209,-1.506,2.083,-2.26C2.508,-2.431,2.844,-2.567,3.085,-2.678C4.512,-3.338,6.373,-3.295,6.452,-3.291C6.665,-3.285,6.832,-3.108,6.826,-2.895C6.82,-2.686,6.649,-2.52,6.441,-2.52C6.437,-2.52,6.434,-2.52,6.43,-2.52C6.412,-2.521,4.668,-2.561,3.408,-1.978C3.149,-1.858,2.806,-1.72,2.371,-1.545C0.534,-0.806,-2.887,0.571,-6.201,3.209C-6.272,3.265,-6.357,3.293,-6.441,3.293Z" /></g></g><g id="i14" transform="matrix(1,0,0,1,320.939,333.597)"><g id="i2"><path fill="#2b2f53" d="M2.027,4.096C1.915,4.096,1.803,4.047,1.727,3.953C0.69,2.671,-0.279,0.696,-1.304,-1.396C-1.651,-2.104,-2.009,-2.836,-2.369,-3.535C-2.466,-3.724,-2.392,-3.956,-2.203,-4.054C-2.014,-4.15,-1.782,-4.076,-1.684,-3.887C-1.321,-3.181,-0.96,-2.446,-0.612,-1.735C0.394,0.317,1.344,2.254,2.326,3.468C2.46,3.633,2.435,3.876,2.269,4.01C2.198,4.068,2.112,4.096,2.027,4.096Z" /></g></g><g id="i2" transform="matrix(1,0,0,1,329.779,325.253)"><g id="i2"><path fill="#2b2f53" d="M2.206,2.528C2.119,2.528,2.031,2.498,1.959,2.438C1.936,2.418,-0.407,0.452,-2.493,-1.886C-2.635,-2.045,-2.622,-2.288,-2.463,-2.43C-2.304,-2.572,-2.059,-2.559,-1.918,-2.4C0.131,-0.103,2.43,1.828,2.453,1.847C2.616,1.983,2.638,2.227,2.502,2.39C2.426,2.481,2.316,2.528,2.206,2.528Z" /></g></g></g><g id="i22" transform="matrix(1,0,0,1,256.893,334.352)"><g id="i2"><path fill="#e69f82" d="M-56.198,-11.185C-42.88,-7.595,-35.611,-6.898,-19.861,-5.972C-4.111,-5.046,9.323,-6.32,12.102,-6.899C14.881,-7.478,29.01,-19.175,31.21,-20.796C33.41,-22.417,33.24,-22.522,39.758,-23.146C46.276,-23.77,55.845,-24.949,56.33,-24.741C56.815,-24.533,57.023,-19.333,55.428,-18.501C53.833,-17.669,51.804,-16.996,48.772,-16.559C41.561,-15.519,40.313,-14.756,38.164,-12.468C38.164,-12.468,42.185,-10.943,49.119,-10.111C56.053,-9.279,61.946,-9.071,62.501,-8.378C63.056,-7.685,64.581,-2.415,63.194,-1.999C61.807,-1.583,57.231,-1.236,57.231,-1.236C57.231,-1.236,57.509,1.676,57.162,2.092C56.815,2.508,50.852,7.084,50.852,7.084C50.852,7.084,51.199,11.799,50.644,12.631C50.089,13.463,47.455,14.434,46.068,15.821C44.681,17.208,45.097,17.277,42.601,17.762C40.105,18.247,34.004,18.178,30.953,18.317C27.902,18.456,18.68,18.871,16.253,17.97C13.826,17.069,12.648,15.96,11.608,16.029C10.568,16.098,-15.572,19.843,-26.804,20.952C-38.036,22.061,-63.761,24.765,-63.761,24.765C-63.761,24.765,-56.897,3.34,-56.198,-11.185Z" /></g></g><g id="i23" transform="matrix(1,0,0,1,0,0)"><g id="i14" transform="matrix(1,0,0,1,310.591,251.099)"><path fill="#fbc89f" d="M-12.751,-2.639C-14.251,8.701,-7.951,24.046,-2.761,18.931C1.349,14.671,7.249,8.431,7.249,8.431C7.249,8.431,15.749,-4.079,12.039,-12.669C8.319,-21.269,-0.031,-19.859,-0.031,-19.859C-0.031,-19.859,-6.111,-10.869,-8.291,-7.989C-8.381,-7.879,-8.461,-7.779,-8.531,-7.689C-8.531,-7.689,-12.751,-2.639,-12.751,-2.639Z" /></g><g id="i2" transform="matrix(1,0,0,1,299.94,252.195)"><path fill="#fbc89f" d="" /></g></g><g id="i24" transform="matrix(1,0,0,1,361.664,181.757)"><g id="i2"><path fill="#fbc89f" d="M9.99,8.12C14.128,11.414,18.942,12.09,26.037,12.681C33.132,13.272,48.25,12.597,49.939,25.519C49.939,25.519,42.285,24.839,20.886,33.12C-0.668,41.461,-12.222,50.687,-12.222,50.687C-12.222,50.687,-22.608,35.125,-30.012,31.662C-30.012,31.662,-53.185,-18.991,-49.553,-32.842C-45.921,-46.693,-39.165,-56.491,-18.81,-46.778C1.545,-37.065,12.102,-8.096,12.102,-8.096C12.102,-8.096,9.99,8.12,9.99,8.12Z" /></g></g><g id="i25" transform="matrix(1,0,0,1,347.633,182.903)"><g id="i2"><path fill="#2b2f53" d="M5.058,0C4.372,1.776,2.499,6.49,-4.851,11.613C-6.873,7.675,-6.565,4.886,-6.565,4.886C-1.978,2.595,0.46,0.16,3.888,-4.635C5.111,-6.349,6.234,-9.103,6.581,-11.613C6.581,-11.613,6.197,-2.953,5.058,0Z" /></g></g><g id="i26" transform="matrix(1,0,0,1,342.169,201.492)"><g id="i2"><path fill="#0e1536" d="M16.333,-34.707C18.824,-27.899,28.435,-12.384,29.485,-11.615C30.535,-10.846,37.256,-15.694,37.339,-23.665C37.422,-31.636,33.022,-43.84,29.037,-52.475C25.052,-61.11,18.658,-71.572,12.182,-74.727C5.706,-77.882,-3.759,-76.387,-3.759,-76.387C-3.759,-76.387,-4.756,-78.463,-11.232,-77.716C-17.708,-76.969,-24.848,-75.308,-29.664,-67.337C-34.48,-59.366,-35.061,-52.558,-33.234,-46.331C-31.407,-40.104,-30.079,-26.571,-33.483,-17.023C-36.887,-7.475,-40.042,0.247,-33.649,6.308C-27.256,12.369,-26.592,15.524,-29.664,18.928C-32.736,22.332,-35.144,24.823,-33.483,29.556C-31.822,34.289,-25.512,37.195,-24.599,37.942C-24.599,37.942,-20.614,47.489,-24.018,52.222C-27.422,56.955,-30.909,62.352,-26.592,69.658C-26.592,69.658,-4.921,72.481,7.533,77.878C7.533,77.878,8.197,72.564,2.219,68.911C-3.759,65.258,-7.164,62.601,-8.16,60.774C-8.16,60.774,-6.914,59.197,-4.423,57.37C-1.932,55.543,-0.853,51.06,-3.344,46.743C-5.835,42.426,-8.409,39.187,-8.741,32.96C-9.073,26.733,-6.831,17.268,-3.261,10.958C0.309,4.648,6.537,0.497,4.544,-3.987C2.551,-8.47,-1.102,-13.701,-1.102,-13.701C-1.102,-13.701,-7.737,-10.931,-10.239,-11.211C-12.642,-11.48,-14.47,-12.539,-17.459,-18.019C-20.448,-23.499,-23.354,-33.545,-24.516,-41.765C-25.678,-49.985,-25.713,-59.367,-18.455,-65.012C-16.961,-66.174,-10.484,-65.013,-6.167,-59.865C-1.85,-54.717,0.06,-48.822,3.547,-47.66C7.034,-46.498,10.023,-47.494,11.85,-48.822C13.677,-50.15,17.953,-48.826,18.409,-43.508C18.935,-37.379,16.333,-34.707,16.333,-34.707Z" /></g></g><g id="i27" transform="matrix(1,0,0,1,0,0)"><g id="i4" transform="matrix(1,0,0,1,367.596,173.029)"><g id="i2"><path fill="#505c7b" d="M3.13,16.069C3.034,16.069,2.938,16.034,2.863,15.962C2.71,15.814,2.704,15.57,2.852,15.417C6.385,11.743,7.074,9.501,6.2,4.518C5.344,-0.365,2.979,-4.115,-0.458,-6.04C-3.85,-7.94,-5.561,-9.689,-6.004,-11.713C-6.067,-12.001,-6.122,-12.271,-6.173,-12.526C-6.406,-13.679,-6.574,-14.511,-7.242,-15.462C-7.364,-15.636,-7.322,-15.877,-7.148,-15.999C-6.974,-16.121,-6.734,-16.079,-6.611,-15.905C-5.85,-14.822,-5.659,-13.877,-5.417,-12.679C-5.366,-12.428,-5.313,-12.162,-5.251,-11.878C-4.859,-10.088,-3.265,-8.495,-0.082,-6.712C3.561,-4.672,6.062,-0.731,6.959,4.385C7.875,9.612,7.113,12.099,3.408,15.951C3.332,16.03,3.231,16.069,3.13,16.069Z" /></g></g><g id="i5" transform="matrix(1,0,0,1,331.062,130.792)"><g id="i2"><path fill="#505c7b" d="M-7.348,6.073C-7.398,6.073,-7.448,6.063,-7.497,6.043C-7.693,5.961,-7.786,5.734,-7.703,5.538C-6.243,2.059,4.535,-5.341,7.249,-6.06C7.456,-6.114,7.666,-5.992,7.72,-5.786C7.774,-5.58,7.653,-5.37,7.447,-5.315C4.886,-4.637,-5.635,2.6,-6.993,5.836C-7.055,5.984,-7.197,6.073,-7.348,6.073Z" /></g></g><g id="i6" transform="matrix(1,0,0,1,342.116,141.256)"><g id="i2"><path fill="#505c7b" d="M10.534,12.329C3.764,12.329,2.215,6.346,0.845,1.057C0.692,0.468,0.542,-0.112,0.387,-0.674C-0.915,-5.386,-6.607,-11.51,-10.868,-11.558C-11.081,-11.56,-11.251,-11.735,-11.249,-11.948C-11.246,-12.159,-11.075,-12.329,-10.864,-12.329C-10.862,-12.329,-10.862,-12.329,-10.86,-12.329C-6.3,-12.278,-0.24,-5.835,1.13,-0.879C1.286,-0.313,1.437,0.271,1.591,0.864C2.976,6.211,4.405,11.742,10.853,11.553C11.068,11.544,11.243,11.714,11.249,11.927C11.255,12.14,11.088,12.318,10.875,12.324C10.76,12.327,10.646,12.329,10.534,12.329Z" /></g></g><g id="i7" transform="matrix(1,0,0,1,356.095,144.528)"><g id="i2"><path fill="#505c7b" d="M20.455,18.475C20.307,18.475,20.166,18.388,20.102,18.244C16.361,9.75,9,5.707,5.857,3.981C5.685,3.887,5.527,3.8,5.382,3.719C5.029,3.523,4.63,3.311,4.197,3.082C1.133,1.46,-3.498,-0.992,-5.589,-5.313C-7.897,-10.083,-15.549,-16.95,-20.514,-17.708C-20.724,-17.74,-20.868,-17.936,-20.836,-18.147C-20.804,-18.357,-20.609,-18.502,-20.397,-18.47C-15.084,-17.659,-7.303,-10.625,-4.895,-5.649C-2.914,-1.555,1.582,0.826,4.557,2.401C4.995,2.633,5.4,2.846,5.757,3.045C5.901,3.125,6.058,3.212,6.228,3.305C9.44,5.069,16.961,9.201,20.808,17.934C20.894,18.129,20.805,18.356,20.61,18.442C20.56,18.464,20.507,18.475,20.455,18.475Z" /></g></g><g id="i8" transform="matrix(1,0,0,1,325.411,128.16)"><g id="i2"><path fill="#505c7b" d="M4.69,2.384C4.689,2.384,4.687,2.384,4.686,2.384C4.473,2.382,4.303,2.208,4.305,1.995C4.314,1.085,3.949,0.285,3.251,-0.317C2.235,-1.193,0.043,-2.082,-4.63,-1.341C-4.842,-1.307,-5.038,-1.451,-5.071,-1.661C-5.104,-1.871,-4.961,-2.069,-4.751,-2.102C0.214,-2.889,2.615,-1.883,3.754,-0.901C4.63,-0.146,5.086,0.859,5.075,2.003C5.073,2.215,4.901,2.384,4.69,2.384Z" /></g></g><g id="i9" transform="matrix(1,0,0,1,318.779,133.166)"><g id="i2"><path fill="#505c7b" d="M-7.054,2.723C-7.133,2.723,-7.214,2.699,-7.282,2.649C-7.454,2.523,-7.491,2.282,-7.365,2.11C-5.074,-1.021,-1.545,-2.87,1.857,-2.714C4.283,-2.603,6.246,-1.497,7.385,0.4C7.495,0.583,7.435,0.819,7.252,0.929C7.07,1.038,6.834,0.98,6.724,0.797C5.722,-0.872,3.982,-1.846,1.822,-1.944C-1.323,-2.087,-4.603,-0.36,-6.743,2.565C-6.819,2.668,-6.935,2.723,-7.054,2.723Z" /></g></g><g id="i10" transform="matrix(1,0,0,1,313.916,173.054)"><g id="i2"><path fill="#505c7b" d="M-5.395,35.131C-5.545,35.131,-5.687,35.044,-5.75,34.898C-9.478,26.224,-5.635,19.233,-2.245,13.065C-1.117,11.012,-0.05,9.073,0.621,7.244C3.751,-1.281,1.543,-11.745,0.792,-14.749C-0.797,-21.104,-0.636,-25.471,-0.319,-28.565C-0.057,-31.125,1.911,-34.007,3.976,-34.859C5.126,-35.333,6.218,-35.186,7.137,-34.433C7.302,-34.298,7.326,-34.055,7.191,-33.89C7.056,-33.726,6.814,-33.701,6.649,-33.836C5.954,-34.406,5.152,-34.511,4.269,-34.147C2.466,-33.404,0.681,-30.759,0.448,-28.487C0.137,-25.455,-0.02,-21.175,1.54,-14.936C2.304,-11.878,4.55,-1.223,1.344,7.509C0.653,9.393,-0.426,11.357,-1.569,13.436C-4.874,19.449,-8.621,26.265,-5.042,34.594C-4.958,34.79,-5.048,35.016,-5.244,35.1C-5.293,35.121,-5.344,35.131,-5.395,35.131Z" /></g></g><g id="i11" transform="matrix(1,0,0,1,314.101,224.039)"><g id="i2"><path fill="#505c7b" d="M0.752,14.083C0.658,14.083,0.565,14.049,0.491,13.98C-6.537,7.467,-2.055,2.158,0.623,-1.014C1.316,-1.835,1.916,-2.544,2.224,-3.128C3.682,-5.889,1.612,-9.724,-3.314,-13.388C-3.485,-13.515,-3.52,-13.756,-3.393,-13.927C-3.266,-14.098,-3.025,-14.133,-2.854,-14.006C2.482,-10.037,4.581,-5.941,2.905,-2.768C2.558,-2.111,1.934,-1.372,1.212,-0.516C-1.61,2.826,-5.475,7.402,1.014,13.415C1.17,13.56,1.18,13.803,1.035,13.959C0.959,14.041,0.855,14.083,0.752,14.083Z" /></g></g><g id="i12" transform="matrix(1,0,0,1,338.173,202.992)"><g id="i2"><path fill="#505c7b" d="M-0.989,13.366C-1.155,13.366,-1.308,13.257,-1.358,13.09C-1.91,11.233,-0.807,8.485,0.47,5.303C0.757,4.587,1.054,3.847,1.336,3.105C2.747,-0.608,1.954,-3.731,-2.704,-12.804C-2.801,-12.993,-2.726,-13.226,-2.537,-13.323C-2.348,-13.42,-2.115,-13.345,-2.018,-13.156C2.766,-3.838,3.566,-0.592,2.057,3.379C1.772,4.128,1.474,4.871,1.185,5.59C0.013,8.511,-1.095,11.27,-0.62,12.87C-0.559,13.074,-0.675,13.289,-0.879,13.35C-0.916,13.361,-0.953,13.366,-0.989,13.366Z" /></g></g><g id="i13" transform="matrix(1,0,0,1,327.615,221.189)"><g id="i2"><path fill="#505c7b" d="M5.435,42.867C5.394,42.867,5.352,42.861,5.311,42.847C5.11,42.779,5.002,42.559,5.07,42.358C9.736,28.606,3.339,20.022,-1.333,13.754C-2.964,11.566,-4.371,9.676,-4.997,7.956C-7.425,1.276,-5.64,-3.703,-2.639,-10.538C-2.508,-10.837,-2.37,-11.136,-2.224,-11.445C-8.651,-14.109,-7.932,-20.7,-6.525,-27.798C-5.304,-33.952,-5.006,-36.93,-5.648,-42.437C-5.673,-42.649,-5.521,-42.839,-5.31,-42.864C-5.094,-42.889,-4.907,-42.737,-4.882,-42.526C-4.228,-36.916,-4.531,-33.891,-5.769,-27.648C-7.112,-20.873,-7.818,-14.591,-1.885,-12.138C0.085,-16.001,2.429,-18.381,4.425,-18.528C5.327,-18.594,6.096,-18.204,6.653,-17.4C7.51,-16.163,7.316,-14.278,6.179,-12.816C5.554,-12.012,3.181,-9.567,-1.502,-11.17C-1.655,-10.849,-1.797,-10.538,-1.933,-10.228C-4.859,-3.565,-6.603,1.283,-4.273,7.693C-3.686,9.306,-2.309,11.155,-0.715,13.294C4.058,19.699,10.596,28.47,5.8,42.606C5.745,42.766,5.596,42.867,5.435,42.867ZM-1.158,-11.866C2.977,-10.488,5.029,-12.593,5.57,-13.289C6.502,-14.488,6.687,-15.998,6.02,-16.961C5.622,-17.536,5.102,-17.806,4.482,-17.759C3.152,-17.661,0.99,-16.054,-1.158,-11.866Z" /></g></g><g id="i14" transform="matrix(1,0,0,1,333.316,268.193)"><g id="i2"><path fill="#505c7b" d="M1.45,6.312C1.347,6.312,1.245,6.271,1.169,6.19C-2.553,2.208,-2.822,-2.064,0.391,-6.164C0.522,-6.331,0.764,-6.361,0.932,-6.23C1.099,-6.099,1.129,-5.857,0.998,-5.689C-1.991,-1.876,-1.744,1.944,1.732,5.663C1.877,5.819,1.87,6.063,1.714,6.208C1.64,6.278,1.544,6.312,1.45,6.312Z" /></g></g><g id="i2" transform="matrix(1,0,0,1,320.136,256.004)"><g id="i2"><path fill="#505c7b" d="M-1.478,14.868C-1.607,14.868,-1.734,14.802,-1.807,14.684C-4.244,10.714,-4.033,5.758,-1.305,2.896C1.58,-0.129,2.786,-3.009,2.729,-6.731C2.67,-10.593,1.695,-13.071,1.279,-14.129C1.279,-14.129,1.195,-14.344,1.195,-14.344C1.118,-14.543,1.217,-14.765,1.416,-14.842C1.614,-14.918,1.837,-14.82,1.914,-14.621C1.914,-14.621,1.996,-14.411,1.996,-14.411C2.428,-13.314,3.439,-10.744,3.5,-6.742C3.561,-2.799,2.29,0.242,-0.747,3.427C-3.198,5.997,-3.371,10.664,-1.15,14.281C-1.039,14.462,-1.096,14.7,-1.277,14.811C-1.34,14.85,-1.409,14.868,-1.478,14.868Z" /></g></g></g><g id="i28" transform="matrix(1,0,0,1,374.175,223.063)"><g id="i2"><path fill="#ee5f80" d="M-27.4,17.633C-14.32,12.676,10.525,5.762,37.835,6.618C43.922,6.809,41.977,5.688,41.853,1.386C41.727,-2.982,40.973,-12.985,40.092,-15.124C39.211,-17.263,37.764,-18.017,32.857,-17.451C27.95,-16.885,2.536,-12.23,-23.886,6.643C-23.886,6.643,-27.535,1.924,-29.674,-0.592C-31.813,-3.108,-34.958,-7.449,-37.978,-8.896C-37.978,-8.896,-41.443,-1.895,-42.245,6.767C-42.245,6.767,-32.927,11.386,-27.4,17.633Z" /></g></g><g id="i29" transform="matrix(1,0,0,1,89.928,275.739)"><g id="i2"><path fill="#55c1e5" d="M-40.623,96.779C-40.652,96.779,-40.682,96.776,-40.712,96.769C-40.919,96.72,-41.048,96.512,-40.999,96.305C-36.616,77.653,-32.261,58.524,-28.418,41.647C-22.451,15.441,-17.298,-7.191,-13.758,-20.645C-7.993,-42.552,-3.014,-61.472,13.124,-76.249C33.321,-94.742,40.242,-96.692,40.527,-96.766C40.733,-96.819,40.943,-96.697,40.997,-96.491C41.051,-96.285,40.927,-96.075,40.721,-96.021C40.654,-96.003,33.62,-93.97,13.645,-75.68C-2.326,-61.057,-7.278,-42.239,-13.012,-20.449C-16.549,-7.008,-21.701,15.62,-27.666,41.819C-31.509,58.697,-35.865,77.827,-40.249,96.482C-40.291,96.66,-40.448,96.779,-40.623,96.779Z" /></g></g><g id="i30" transform="matrix(1,0,0,1,121.149,223.535)"><g id="i2"><path fill="#55c1e5" d="M-19.809,9.044C-19.88,9.044,-19.952,9.025,-20.016,8.984C-20.196,8.87,-20.248,8.632,-20.134,8.452C-15.705,1.492,-8.537,-4.158,-0.467,-7.051C7.267,-9.823,14.919,-9.697,20.004,-6.712C20.188,-6.604,20.249,-6.369,20.141,-6.185C20.033,-6.001,19.798,-5.94,19.614,-6.048C14.724,-8.918,7.314,-9.022,-0.207,-6.326C-8.119,-3.49,-15.145,2.048,-19.484,8.866C-19.558,8.981,-19.682,9.044,-19.809,9.044Z" /></g></g><g id="i31" transform="matrix(1,0,0,1,124.965,200.657)"><g id="i2"><path fill="#55c1e5" d="M-4.434,9.14C-4.501,9.14,-4.57,9.122,-4.632,9.085C-4.814,8.975,-4.874,8.739,-4.764,8.556C-1.114,2.473,4.03,-8.801,4.082,-8.914C4.17,-9.108,4.399,-9.193,4.593,-9.105C4.787,-9.017,4.872,-8.788,4.784,-8.594C4.732,-8.48,-0.431,2.831,-4.103,8.952C-4.175,9.072,-4.303,9.14,-4.434,9.14Z" /></g></g><g id="i32" transform="matrix(1,0,0,1,149.584,194.205)"><g id="i2"><path fill="#66caf3" d="M-20.186,-16.764C-20.186,-16.764,9.116,25.603,9.116,25.603C9.116,25.603,16.762,21.064,20.186,19.79C20.186,19.79,6.568,0.756,-0.759,-9.756C-8.086,-20.268,-13.023,-25.603,-13.023,-25.603C-13.023,-25.603,-20.186,-16.764,-20.186,-16.764Z" /></g></g><g id="i33" transform="matrix(1,0,0,1,167.495,242.54)"><g id="i2"><path fill="#55c1e5" d="M-3.568,28.93C-3.587,28.93,-3.607,28.929,-3.626,28.926C-3.837,28.895,-3.981,28.699,-3.95,28.488C-3.944,28.447,-3.334,24.341,-3.075,21.403C-2.985,20.388,-2.678,17.393,-2.321,13.925C-1.627,7.177,-0.676,-2.065,-0.619,-3.676C-0.528,-6.22,-0.062,-8.127,1.062,-12.189C2.169,-16.191,3.061,-23.493,3.155,-25.184C3.238,-26.687,3.243,-26.777,1.979,-28.299C1.843,-28.463,1.865,-28.705,2.029,-28.841C2.193,-28.977,2.436,-28.955,2.572,-28.791C3.976,-27.101,4.017,-26.822,3.924,-25.141C3.829,-23.429,2.926,-16.037,1.805,-11.984C0.699,-7.984,0.239,-6.11,0.151,-3.648C0.093,-2.012,-0.859,7.245,-1.554,14.004C-1.91,17.469,-2.218,20.46,-2.307,21.47C-2.568,24.431,-3.182,28.561,-3.188,28.602C-3.217,28.793,-3.38,28.93,-3.568,28.93Z" /></g></g><g id="i34" transform="matrix(1,0,0,1,166.623,275.096)"><g id="i2"><path fill="#55c1e5" d="M9.298,43.288C9.209,43.288,9.12,43.257,9.047,43.195C8.885,43.056,8.867,42.814,9.006,42.652C9.503,42.073,9.952,40.391,9.527,39.568C9.412,39.345,9.181,39.056,8.499,39.118C7.053,39.247,6.461,38.803,6.217,38.406C5.976,38.013,5.998,37.516,6.274,37.077C8.241,33.95,7.041,31.71,5.776,30.108C4.301,28.24,2.263,19.783,1.818,17.557C1.344,15.186,-0.709,5.973,-1.876,1.303C-3.001,-3.196,-5.478,-14.016,-7.851,-25.205C-10.154,-36.063,-10.461,-38.595,-10.461,-42.902C-10.461,-43.115,-10.289,-43.288,-10.076,-43.288C-9.863,-43.288,-9.691,-43.115,-9.691,-42.902C-9.691,-38.66,-9.385,-36.154,-7.097,-25.365C-4.725,-14.184,-2.252,-3.376,-1.129,1.117C0.063,5.887,2.085,14.966,2.573,17.406C3.119,20.136,5.118,28.03,6.381,29.63C7.692,31.29,9.175,33.912,6.926,37.487C6.87,37.576,6.753,37.805,6.874,38.003C6.941,38.112,7.25,38.459,8.43,38.35C9.483,38.256,9.981,38.768,10.212,39.215C10.803,40.36,10.243,42.393,9.591,43.153C9.515,43.242,9.407,43.288,9.298,43.288Z" /></g></g><g id="i35" transform="matrix(1,0,0,1,177.128,318.174)"><g id="i2"><path fill="#55c1e5" d="M-0.68,1.395C-0.737,1.395,-0.795,1.382,-0.849,1.356C-1.04,1.263,-1.12,1.032,-1.027,0.841C-0.185,-0.888,0.381,-1.281,0.486,-1.342C0.67,-1.449,0.906,-1.387,1.013,-1.203C1.12,-1.019,1.059,-0.783,0.875,-0.676C0.875,-0.676,0.875,-0.677,0.875,-0.677C0.877,-0.677,0.404,-0.336,-0.334,1.178C-0.401,1.315,-0.537,1.395,-0.68,1.395Z" /></g></g><g id="i36" transform="matrix(1,0,0,1,171.292,340.969)"><g id="i2"><path fill="#55c1e5" d="M-7.023,22.171C-7.203,22.171,-7.364,22.044,-7.401,21.861C-7.624,20.746,-6.521,17.591,-4.324,11.304C-4.324,11.304,-3.977,10.31,-3.977,10.31C-1.497,3.207,0.283,-2.127,2.037,-8.37C3.635,-14.057,5.708,-20.627,6.734,-22.014C6.861,-22.186,7.102,-22.221,7.273,-22.095C7.444,-21.969,7.48,-21.727,7.353,-21.556C6.559,-20.482,4.764,-15.225,2.779,-8.161C1.02,-1.899,-0.764,3.447,-3.249,10.564C-3.249,10.564,-3.596,11.558,-3.596,11.558C-5.61,17.322,-6.827,20.801,-6.645,21.71C-6.603,21.919,-6.738,22.121,-6.947,22.163C-6.973,22.168,-6.998,22.171,-7.023,22.171Z" /></g></g><g id="i37" transform="matrix(1,0,0,1,183.864,340.813)"><g id="i2"><path fill="#66caf3" d="M-5.068,-22.86C-0.987,-23.167,8.03,-21.762,11.058,-21.63C14.086,-21.498,18.342,-19.874,19.132,-19.26C19.231,-17.344,18.01,-6.533,16.953,-1.117C15.896,4.299,12.89,13.679,12.428,15.661C11.966,17.643,11.272,20.979,10.942,21.507C10.612,22.035,7.97,22.596,5.295,22.629C2.62,22.662,-13.135,23.026,-14.885,22.861C-16.635,22.696,-16.792,23.209,-17.857,22.101C-19.436,20.458,-19.285,19.719,-18.824,18.304C-18.363,16.889,-10.016,-8.925,-8.862,-12.578C-7.708,-16.231,-5.068,-22.86,-5.068,-22.86Z" /></g></g><g id="i38" transform="matrix(1,0,0,1,171.634,323.899)"><g id="i2"><path fill="#55c1e5" d="M-3.178,5.706C-3.263,5.706,-3.348,5.677,-3.419,5.62C-3.585,5.486,-3.612,5.244,-3.478,5.078C-2.852,4.302,1.463,-1.834,2.817,-5.455C2.891,-5.654,3.113,-5.755,3.312,-5.681C3.511,-5.606,3.613,-5.384,3.538,-5.185C2.153,-1.481,-2.241,4.772,-2.878,5.562C-2.954,5.656,-3.065,5.706,-3.178,5.706Z" /></g></g><g id="i39" transform="matrix(1,0,0,1,166.157,318.783)"><g id="i2"><path fill="#55c1e5" d="M-5.134,3.534C-5.234,3.534,-5.333,3.495,-5.409,3.418C-5.558,3.266,-5.556,3.022,-5.404,2.873C-3.784,1.282,3.38,-3.209,5.062,-3.527C5.272,-3.567,5.472,-3.429,5.512,-3.22C5.552,-3.011,5.414,-2.81,5.205,-2.77C3.811,-2.506,-3.247,1.835,-4.864,3.423C-4.939,3.497,-5.037,3.534,-5.134,3.534Z" /></g></g><g id="i40" transform="matrix(1,0,0,1,139.491,352.222)"><g id="i2"><path fill="#55c1e5" d="M-3.179,11.294C-3.219,11.294,-3.259,11.288,-3.299,11.275C-3.501,11.209,-3.611,10.991,-3.545,10.789C-1.264,3.818,1.233,-3.08,2.173,-5.677C2.373,-6.23,2.511,-6.611,2.573,-6.787C2.85,-7.578,2.801,-10.018,2.759,-10.891C2.749,-11.104,2.912,-11.284,3.125,-11.294C3.334,-11.301,3.519,-11.141,3.529,-10.928C3.545,-10.592,3.677,-7.608,3.3,-6.532C3.238,-6.355,3.1,-5.971,2.898,-5.414C1.959,-2.82,-0.535,4.069,-2.812,11.029C-2.865,11.191,-3.017,11.294,-3.179,11.294Z" /></g></g><g id="i41" transform="matrix(1,0,0,1,136.777,312.443)"><g id="i2"><path fill="#55c1e5" d="M28.043,47.775C28.025,47.775,28.007,47.775,27.989,47.772C27.765,47.741,22.492,47.002,21.038,46.275C19.735,45.623,12.656,41.15,9.818,37.078C8.147,34.681,3.22,24.268,-1.127,15.081C-3.893,9.236,-6.505,3.714,-7.881,1.099C-11.34,-5.474,-24.092,-32.521,-28.412,-47.282C-28.472,-47.486,-28.355,-47.7,-28.151,-47.76C-27.947,-47.82,-27.732,-47.702,-27.672,-47.498C-23.434,-33.017,-10.533,-5.595,-7.199,0.74C-5.815,3.369,-3.199,8.898,-0.43,14.751C3.904,23.911,8.816,34.293,10.45,36.637C13.161,40.526,20.16,44.975,21.383,45.586C22.724,46.257,28.041,47,28.095,47.008C28.306,47.037,28.453,47.232,28.424,47.443C28.397,47.636,28.232,47.775,28.043,47.775Z" /></g></g><g id="i42" transform="matrix(1,0,0,1,294.031,320.798)"><g id="i2"><path fill="#2b2f53" d="M1.025,1.471C0.956,1.471,0.886,1.452,0.823,1.413C-0.895,0.352,-1.166,-0.366,-1.345,-0.841C-1.345,-0.841,-1.383,-0.942,-1.383,-0.942C-1.462,-1.139,-1.367,-1.364,-1.169,-1.443C-0.972,-1.522,-0.747,-1.426,-0.668,-1.228C-0.668,-1.228,-0.623,-1.113,-0.623,-1.113C-0.472,-0.713,-0.266,-0.166,1.228,0.757C1.409,0.869,1.466,1.107,1.354,1.288C1.281,1.406,1.154,1.471,1.025,1.471Z" /></g></g><g id="i43" transform="matrix(1,0,0,1,311.331,333.535)"><g id="i2"><path fill="#2b2f53" d="M-2.794,0.825C-2.973,0.825,-3.132,0.7,-3.17,0.518C-3.213,0.31,-3.08,0.105,-2.872,0.062C2.527,-1.062,2.866,-0.835,3.009,-0.738C3.186,-0.619,3.232,-0.379,3.113,-0.203C3.008,-0.047,2.809,0.008,2.642,-0.064C2.201,-0.117,-0.406,0.336,-2.715,0.817C-2.741,0.823,-2.768,0.825,-2.794,0.825ZM2.578,-0.099C2.578,-0.099,2.578,-0.099,2.578,-0.099C2.578,-0.099,2.578,-0.099,2.578,-0.099Z" /></g></g><g id="i44" transform="matrix(1,0,0,1,306.304,342.509)"><g id="i2"><path fill="#2b2f53" d="M-1.441,1.458C-1.556,1.458,-1.67,1.406,-1.746,1.308C-1.876,1.14,-1.845,0.898,-1.677,0.768C-1.666,0.759,-0.525,-0.124,1.215,-1.385C1.387,-1.509,1.629,-1.472,1.754,-1.299C1.879,-1.127,1.84,-0.886,1.668,-0.761C-0.061,0.492,-1.195,1.368,-1.206,1.377C-1.276,1.431,-1.358,1.458,-1.441,1.458Z" /></g></g><g id="i45" transform="matrix(1,0,0,1,175.143,290.186)"><g id="i2"><path fill="#55c1e5" d="M-5.12,2.602C-5.653,2.602,-6.079,2.515,-6.5,2.4C-6.705,2.344,-6.826,2.132,-6.77,1.927C-6.714,1.722,-6.501,1.6,-6.296,1.657C-4.751,2.08,-2.947,2.026,6.226,-2.561C6.416,-2.656,6.648,-2.579,6.743,-2.389C6.838,-2.199,6.76,-1.966,6.57,-1.871C-0.621,1.724,-3.416,2.602,-5.12,2.602Z" /></g></g><g id="i46" transform="matrix(1,0,0,1,173.255,242.737)"><g id="i2"><path fill="#55c1e5" d="M4.721,11.23C4.681,11.23,4.639,11.224,4.599,11.21C4.437,11.156,2.998,10.664,2.449,10.037C2.076,9.61,2.199,8.828,2.341,7.921C2.416,7.443,2.541,6.642,2.418,6.457C2.289,6.264,2.03,6.246,1.616,6.232C1.271,6.221,0.881,6.209,0.553,6.004C0.12,5.733,-0.428,4.094,-2.399,-2.25C-3.205,-4.845,-4.118,-7.786,-5.087,-10.724C-5.154,-10.926,-5.044,-11.144,-4.842,-11.211C-4.64,-11.277,-4.421,-11.167,-4.355,-10.965C-3.384,-8.021,-2.47,-5.077,-1.663,-2.479C-0.484,1.316,0.63,4.903,0.987,5.365C1.141,5.446,1.384,5.454,1.641,5.462C2.115,5.478,2.705,5.497,3.06,6.029C3.35,6.464,3.236,7.195,3.103,8.04C3.03,8.505,2.894,9.37,3.029,9.529C3.34,9.884,4.307,10.3,4.843,10.479C5.045,10.546,5.154,10.765,5.087,10.967C5.033,11.128,4.882,11.23,4.721,11.23Z" /></g></g><g id="i47" transform="matrix(1,0,0,1,172.087,256.472)"><g id="i2"><path fill="#55c1e5" d="M-2.098,2.81C-2.206,2.81,-2.313,2.766,-2.389,2.678C-2.529,2.518,-2.512,2.274,-2.352,2.134C-0.205,0.262,1.76,-2.612,1.78,-2.641C1.9,-2.817,2.138,-2.863,2.315,-2.743C2.491,-2.623,2.537,-2.384,2.417,-2.208C2.335,-2.087,0.379,0.776,-1.845,2.715C-1.918,2.779,-2.008,2.81,-2.098,2.81Z" /></g></g><g id="i48" transform="matrix(1,0,0,1,178.212,272.171)"><g id="i2"><path fill="#55c1e5" d="M5.784,15.184C5.617,15.184,5.463,15.075,5.414,14.906C5.36,14.722,4.096,10.354,3.841,7.288C3.593,4.314,1.897,-3.275,1.42,-4.733C1.179,-5.472,-0.048,-9.31,-0.467,-12.342C-0.699,-14.019,-1.081,-14.352,-1.164,-14.405C-1.166,-14.402,-1.169,-14.398,-1.172,-14.393C-1.232,-14.284,-1.436,-13.868,-1.72,-13.292C-2.509,-11.688,-3.978,-8.701,-5.445,-5.974C-5.546,-5.787,-5.78,-5.717,-5.967,-5.817C-6.154,-5.918,-6.225,-6.152,-6.124,-6.339C-4.664,-9.054,-3.198,-12.032,-2.411,-13.632C-2.102,-14.261,-1.915,-14.64,-1.847,-14.764C-1.679,-15.071,-1.362,-15.231,-1.04,-15.171C-0.386,-15.051,0.064,-14.135,0.297,-12.448C0.707,-9.481,1.915,-5.7,2.153,-4.972C2.651,-3.45,4.352,4.135,4.609,7.223C4.858,10.211,6.142,14.646,6.155,14.69C6.214,14.894,6.096,15.109,5.892,15.168C5.856,15.178,5.82,15.184,5.784,15.184Z" /></g></g><g id="i49" transform="matrix(1,0,0,1,213.91,227.854)"><g id="i2"><path fill="#505c7b" d="M-2.053,9.346C1.685,6.765,4.169,4.354,4.169,4.354C4.169,4.354,3.338,0.855,3.961,-0.48C4.584,-1.815,4.764,-4.109,4.767,-8.477C4.768,-9.916,-4.443,-9.462,-4.721,-7.901C-4.93,-6.727,-4.405,-3.408,-3.693,-2.923C-2.981,-2.438,-2.358,-2.082,-2.358,0.41C-2.358,2.902,-2.053,9.346,-2.053,9.346Z" /></g></g><g id="i50" transform="matrix(1,0,0,1,217.722,264.601)"><g id="i2"><path fill="#505c7b" d="M-5.684,-3.941C-5.64,-4.177,2.538,-13.311,2.538,-13.311C2.538,-13.311,4.402,-7.546,4.798,-4.494C5.194,-1.442,7.342,8.335,7.116,9.296C6.89,10.257,4.742,13.252,0.955,13.309C-2.832,13.366,-6.505,12.461,-6.957,10.652C-7.409,8.843,-6.984,2.954,-5.684,-3.941Z" /></g></g><g id="i51" transform="matrix(1,0,0,1,217.241,266.259)"><g id="i2"><path fill="#505c7b" d="M1.437,7.748C1.289,7.748,1.148,7.663,1.084,7.519C-1.582,1.517,-1.978,-2.347,-1.778,-7.378C-1.77,-7.591,-1.587,-7.76,-1.377,-7.747C-1.164,-7.738,-0.999,-7.56,-1.007,-7.347C-1.203,-2.433,-0.816,1.342,1.789,7.206C1.875,7.4,1.788,7.628,1.593,7.715C1.542,7.738,1.489,7.748,1.437,7.748Z" /></g></g><g id="i52" transform="matrix(1,0,0,1,214.254,226.947)"><g id="i2"><path fill="#505c7b" d="M0.063,5.463C-0.14,5.463,-0.31,5.304,-0.321,5.098C-0.607,-0.286,-0.324,-5.053,-0.321,-5.101C-0.308,-5.314,-0.126,-5.473,0.087,-5.462C0.299,-5.449,0.461,-5.267,0.448,-5.054C0.445,-5.007,0.165,-0.281,0.449,5.057C0.46,5.27,0.297,5.451,0.084,5.462C0.077,5.462,0.07,5.463,0.063,5.463Z" /></g></g><g id="i53" transform="matrix(1,0,0,1,216.799,204.415)"><g id="i2"><path fill="#505c7b" d="M-2.25,15.243C-2.261,15.243,-2.272,15.243,-2.283,15.242C-2.495,15.224,-2.652,15.037,-2.634,14.825C-1.807,5.142,0.081,-10.793,1.896,-15.01C1.98,-15.206,2.208,-15.296,2.403,-15.212C2.598,-15.128,2.688,-14.901,2.604,-14.706C0.837,-10.603,-1.075,5.626,-1.866,14.891C-1.883,15.092,-2.052,15.243,-2.25,15.243Z" /></g></g><g id="i54" transform="matrix(1,0,0,1,210.581,199.745)"><g id="i2"><path fill="#505c7b" d="M3.006,3.924C3.005,3.924,3.005,3.924,3.004,3.924C-0.159,3.907,-2.308,2.799,-3.761,0.437C-4.826,-1.293,-4.801,-3.372,-4.22,-3.812C-4.023,-3.962,-3.71,-3.991,-3.456,-3.716C-3.223,-3.464,-2.509,-3.17,-1.683,-2.828C-0.963,-2.53,-0.147,-2.192,0.729,-1.743C0.729,-1.743,0.963,-1.623,0.963,-1.623C2.884,-0.641,4.402,0.134,4.617,2.604C4.635,2.816,4.479,3.003,4.267,3.021C4.055,3.039,3.867,2.883,3.849,2.671C3.671,0.626,2.455,0.004,0.613,-0.937C0.613,-0.937,0.377,-1.057,0.377,-1.057C-0.471,-1.492,-1.271,-1.823,-1.977,-2.115C-2.794,-2.453,-3.424,-2.713,-3.813,-3.007C-3.924,-2.482,-3.86,-1.193,-3.105,0.033C-1.805,2.146,0.138,3.137,3.009,3.153C3.222,3.154,3.393,3.328,3.392,3.541C3.391,3.753,3.218,3.924,3.006,3.924Z" /></g></g><g id="i55" transform="matrix(1,0,0,1,222.84,203.287)"><g id="i2"><path fill="#505c7b" d="M-0.894,3.264C-1.46,3.264,-1.955,3.174,-2.387,3.096C-2.387,3.096,-2.645,3.051,-2.645,3.051C-3.846,2.846,-5.123,1.915,-6.786,0.034C-6.927,-0.125,-6.912,-0.369,-6.753,-0.51C-6.594,-0.651,-6.35,-0.636,-6.209,-0.476C-4.691,1.241,-3.518,2.12,-2.516,2.291C-2.429,2.306,-2.34,2.322,-2.25,2.338C-1.19,2.53,0.011,2.746,1.73,1.669C3.79,0.378,5.677,-1.026,6.073,-1.476C5.825,-1.748,4.799,-2.312,3.41,-2.472C1.786,-2.659,-1.628,-1.652,-3.93,0.092C-4.1,0.22,-4.342,0.187,-4.47,0.017C-4.598,-0.153,-4.565,-0.393,-4.395,-0.522C-1.911,-2.404,1.691,-3.444,3.498,-3.238C4.895,-3.077,6.358,-2.451,6.759,-1.842C6.908,-1.616,6.896,-1.424,6.86,-1.303C6.62,-0.503,2.185,2.294,2.14,2.322C0.958,3.063,-0.047,3.264,-0.894,3.264Z" /></g></g><g id="i56" transform="matrix(1,0,0,1,220.163,176.095)"><g id="i2"><path fill="#ee5f80" d="M3.537,2.199C3.457,2.199,3.376,2.174,3.307,2.122C1.403,0.7,-2.101,-1.203,-3.596,-1.432C-3.806,-1.464,-3.95,-1.662,-3.918,-1.872C-3.886,-2.082,-3.69,-2.226,-3.479,-2.194C-1.852,-1.944,1.753,-0.001,3.768,1.505C3.938,1.632,3.973,1.873,3.846,2.044C3.77,2.145,3.654,2.199,3.537,2.199Z" /></g></g><g id="i57" transform="matrix(1,0,0,1,225.142,174.601)"><g id="i2"><path fill="#ee5f80" d="M-1.991,2.379C-3.034,2.379,-3.903,2.208,-4.146,1.723C-4.258,1.499,-4.337,1.135,-4.078,0.664C-3.601,-0.204,-2.096,-1.075,-0.857,-1.201C0.022,-1.291,1.153,-1.269,1.544,-0.66C1.675,-0.456,1.773,-0.112,1.492,0.365C1.384,0.549,1.149,0.61,0.965,0.502C0.781,0.394,0.72,0.157,0.828,-0.026C0.896,-0.142,0.911,-0.22,0.896,-0.244C0.84,-0.332,0.411,-0.555,-0.779,-0.434C-1.749,-0.335,-3.049,0.392,-3.403,1.035C-3.521,1.25,-3.473,1.346,-3.457,1.378C-3.11,1.866,0.812,1.558,2.212,0.929C3.261,0.458,3.74,-0.719,3.35,-1.87C3.282,-2.072,3.389,-2.291,3.591,-2.359C3.793,-2.426,4.012,-2.32,4.08,-2.118C4.591,-0.607,3.924,1.005,2.527,1.632C1.881,1.922,-0.286,2.379,-1.991,2.379Z" /></g></g><g id="i58" transform="matrix(1,0,0,1,431.849,288.723)"><g id="i2"><path fill="#ee5f80" d="M17.97,61.769C17.8,61.769,17.644,61.656,17.598,61.484C8.747,28.722,-3.109,14.603,-9.478,7.018C-11.745,4.318,-13.243,2.534,-13.605,1.032C-13.81,0.18,-14.071,-2.14,-14.466,-5.65C-14.861,-9.163,-15.403,-13.974,-16.142,-19.516C-17.654,-30.858,-18.509,-50.687,-18.332,-61.39C-18.328,-61.603,-18.157,-61.77,-17.941,-61.768C-17.728,-61.764,-17.558,-61.59,-17.562,-61.377C-17.739,-50.702,-16.885,-30.926,-15.377,-19.618C-14.637,-14.068,-14.096,-9.252,-13.7,-5.736C-13.322,-2.379,-13.05,0.046,-12.856,0.852C-12.537,2.178,-11.085,3.907,-8.888,6.523C-2.481,14.154,9.446,28.357,18.342,61.283C18.397,61.488,18.276,61.7,18.071,61.755C18.037,61.764,18.003,61.769,17.97,61.769Z" /></g></g><g id="i59" transform="matrix(1,0,0,1,356.102,175.928)"><g id="i2"><path fill="#ee5f80" d="M0,11.134C-0.213,11.134,-0.385,10.962,-0.385,10.749C-0.385,10.749,-0.385,-10.749,-0.385,-10.749C-0.385,-10.962,-0.213,-11.134,0,-11.134C0.213,-11.134,0.385,-10.962,0.385,-10.749C0.385,-10.749,0.385,10.749,0.385,10.749C0.385,10.962,0.213,11.134,0,11.134Z" /></g></g><g id="i60" transform="matrix(1,0,0,1,356.235,190.012)"><g id="i2"><path fill="#ee5f80" d="M-1.915,0C-1.915,1.058,-1.058,1.915,0,1.915C1.058,1.915,1.915,1.058,1.915,0C1.915,-1.058,1.058,-1.915,0,-1.915C-1.058,-1.915,-1.915,-1.058,-1.915,0Z" /></g></g><g id="i61" transform="matrix(1,0,0,1,323.933,255.975)"><g id="i2"><path fill="#505c7b" d="M5.12,16.926C5.042,16.926,4.964,16.903,4.896,16.854C-1.983,11.917,1.262,5.788,3.41,1.732C3.594,1.385,3.77,1.052,3.932,0.735C4.175,0.258,4.409,-0.17,4.634,-0.584C6.237,-3.534,6.967,-4.88,3.513,-9.621C1.473,-12.421,-0.147,-13.124,-2.39,-14.097C-3.584,-14.615,-4.937,-15.203,-6.566,-16.214C-6.747,-16.326,-6.802,-16.563,-6.69,-16.744C-6.578,-16.925,-6.34,-16.981,-6.16,-16.869C-4.579,-15.887,-3.253,-15.312,-2.084,-14.804C0.182,-13.821,1.972,-13.044,4.136,-10.075C7.877,-4.94,6.966,-3.262,5.311,-0.216C5.088,0.194,4.858,0.618,4.619,1.086C4.456,1.406,4.277,1.742,4.091,2.093C1.948,6.14,-0.988,11.683,5.345,16.228C5.518,16.352,5.557,16.593,5.433,16.766C5.358,16.871,5.24,16.926,5.12,16.926Z" /></g></g><g id="i62" transform="matrix(1,0,0,1,330.814,159.484)"><g id="i2"><path fill="#2b2f53" d="M-1.802,0C-1.802,0.995,-0.995,1.802,0,1.802C0.995,1.802,1.802,0.995,1.802,0C1.802,-0.995,0.995,-1.802,0,-1.802C-0.995,-1.802,-1.802,-0.995,-1.802,0Z" /></g></g><g id="i63" transform="matrix(1,0,0,1,320.47,162.617)"><g id="i2"><path fill="#2b2f53" d="M-1.513,0C-1.513,0.836,-0.836,1.513,0,1.513C0.836,1.513,1.513,0.836,1.513,0C1.513,-0.836,0.836,-1.513,0,-1.513C-0.836,-1.513,-1.513,-0.836,-1.513,0Z" /></g></g><g id="i64" transform="matrix(1,0,0,1,0,0)"><g id="i8" transform="matrix(1,0,0,1,351.521,160.226)"><g id="i2"><path fill="#2b2f53" d="M1.691,6.327C1.513,6.327,1.353,6.203,1.314,6.022C1.303,5.969,0.166,0.656,-2.056,-5.816C-2.125,-6.017,-2.018,-6.237,-1.817,-6.306C-1.616,-6.375,-1.396,-6.268,-1.327,-6.067C0.911,0.452,2.057,5.809,2.069,5.862C2.113,6.07,1.98,6.275,1.772,6.319C1.745,6.325,1.718,6.327,1.691,6.327Z" /></g></g><g id="i9" transform="matrix(1,0,0,1,332.671,158.131)"><g id="i2"><path fill="#2b2f53" d="M-1.281,1.427C-1.452,1.427,-1.609,1.312,-1.654,1.138C-1.707,0.932,-1.584,0.721,-1.378,0.668C-0.342,0.4,0.747,-0.458,0.906,-1.13C0.955,-1.337,1.162,-1.466,1.37,-1.416C1.577,-1.367,1.705,-1.159,1.656,-0.952C1.402,0.121,-0.016,1.111,-1.184,1.414C-1.216,1.422,-1.249,1.427,-1.281,1.427Z" /></g></g><g id="i10" transform="matrix(1,0,0,1,318.363,162.201)"><g id="i2"><path fill="#2b2f53" d="M0.631,0.875C-0.654,0.875,-1.813,0.126,-2.229,-0.178C-2.401,-0.303,-2.438,-0.545,-2.313,-0.717C-2.188,-0.889,-1.947,-0.927,-1.774,-0.801C-1.289,-0.447,0.404,0.642,1.799,-0.222C1.98,-0.334,2.217,-0.279,2.329,-0.098C2.441,0.083,2.386,0.321,2.205,0.433C1.687,0.754,1.148,0.875,0.631,0.875Z" /></g></g><g id="i11" transform="matrix(1,0,0,1,330.281,150.794)"><g id="i2"><path fill="#2b2f53" d="M-5.479,2.518C-5.551,2.518,-5.623,2.499,-5.687,2.457C-5.866,2.342,-5.918,2.103,-5.803,1.924C-3.964,-0.927,-1.959,-2.335,0.506,-2.507C2.594,-2.653,5.109,-1.359,5.809,-0.193C5.919,-0.01,5.86,0.226,5.677,0.336C5.495,0.445,5.258,0.387,5.148,0.204C4.636,-0.65,2.435,-1.87,0.56,-1.738C-0.826,-1.642,-2.927,-1.114,-5.155,2.341C-5.229,2.455,-5.353,2.518,-5.479,2.518Z" /></g></g><g id="i12" transform="matrix(1,0,0,1,322.249,164.302)"><g id="i2"><path fill="#2b2f53" d="M1.787,9.663C1.687,9.663,1.596,9.658,1.516,9.648C0.792,9.558,-0.42,9.406,-0.366,7.858C-0.358,7.635,-0.328,7.207,-0.285,6.616C-0.118,4.299,0.228,-0.523,-0.1,-3.389C-0.49,-6.79,-4.331,-8.994,-6.253,-8.888C-6.474,-8.878,-6.648,-9.04,-6.659,-9.253C-6.67,-9.466,-6.507,-9.647,-6.294,-9.658C-3.849,-9.785,0.239,-7.191,0.665,-3.477C1.002,-0.539,0.652,4.332,0.484,6.672C0.444,7.233,0.411,7.676,0.404,7.885C0.379,8.612,0.669,8.765,1.612,8.883C2.406,8.982,5.196,8.315,6.06,7.739C6.237,7.621,6.476,7.669,6.594,7.846C6.712,8.023,6.664,8.262,6.487,8.38C5.602,8.97,2.999,9.663,1.787,9.663Z" /></g></g><g id="i13" transform="matrix(1,0,0,1,347.559,180.474)"><g id="i2"><path fill="#2b2f53" d="M-6.492,8.625C-6.634,8.625,-6.77,8.546,-6.837,8.411C-6.932,8.221,-6.854,7.989,-6.664,7.894C-2.102,5.616,0.31,2.241,3.649,-2.43C4.731,-3.946,5.676,-6.201,6.115,-8.317C6.158,-8.526,6.363,-8.659,6.57,-8.616C6.778,-8.573,6.912,-8.369,6.869,-8.161C6.41,-5.947,5.417,-3.579,4.277,-1.982C0.873,2.779,-1.586,6.22,-6.32,8.584C-6.375,8.612,-6.434,8.625,-6.492,8.625Z" /></g></g><g id="i14" transform="matrix(1,0,0,1,356.411,168.128)"><g id="i2"><path fill="#2b2f53" d="M-2.092,1.731C-2.287,1.731,-2.453,1.583,-2.474,1.385C-2.496,1.173,-2.343,0.984,-2.131,0.962C-2.112,0.96,-0.074,0.707,1.792,-1.588C1.926,-1.753,2.169,-1.778,2.334,-1.644C2.499,-1.51,2.524,-1.267,2.39,-1.102C0.311,1.455,-1.955,1.718,-2.051,1.728C-2.065,1.73,-2.079,1.731,-2.092,1.731Z" /></g></g><g id="i2" transform="matrix(1,0,0,1,331.482,181.176)"><g id="i2"><path fill="#2b2f53" d="M-1.382,1.213C-1.737,1.213,-2.113,1.184,-2.522,1.129C-2.733,1.101,-2.88,0.906,-2.852,0.695C-2.824,0.484,-2.629,0.338,-2.419,0.365C-0.558,0.614,0.483,0.28,2.228,-1.127C2.394,-1.261,2.636,-1.234,2.77,-1.069C2.903,-0.903,2.878,-0.661,2.712,-0.527C1.167,0.719,0.074,1.213,-1.382,1.213Z" /></g></g></g><g id="i65" transform="matrix(1,0,0,1,330.434,177.164)"><g id="i2"><path fill="#2b2f53" d="M-4.155,2.248C-2.196,2.618,-1.152,2.929,1.048,1.1C3.248,-0.729,3.971,-1.665,4.396,-2.218C4.821,-2.771,3.801,-2.473,3.205,-2.218C2.609,-1.963,0.27,-1.279,-0.326,0.123C-0.922,1.525,-1.179,1.297,-1.912,1.057C-3.73,0.461,-5.185,2.053,-4.155,2.248Z" /></g></g><g id="i66" transform="matrix(1,0,0,1,347.586,199.636)"><g id="i2"><path fill="#2b2f53" d="M1.795,4.433C1.644,4.433,1.502,4.344,1.44,4.196C1.427,4.165,0.092,0.982,-2.145,-3.886C-2.234,-4.079,-2.149,-4.308,-1.956,-4.397C-1.764,-4.486,-1.534,-4.401,-1.445,-4.208C0.798,0.673,2.138,3.866,2.151,3.898C2.233,4.094,2.14,4.321,1.944,4.403C1.895,4.423,1.844,4.433,1.795,4.433Z" /></g></g><g id="i1" transform="matrix(1,0,0,1,0,0)"><g id="i1" transform="matrix(1,0,0,1,257.668,376.352)"><g id="i2"><path fill="#505c7b" d="M-2.772,13.118C-2.818,13.118,-2.865,13.11,-2.911,13.092C-3.109,13.015,-3.208,12.791,-3.131,12.593C-1.782,9.111,-0.065,2.384,0.456,-9.894C0.456,-9.894,0.472,-10.27,0.472,-10.27C0.549,-11.966,0.895,-12.884,1.53,-13.08C2.251,-13.304,2.876,-12.47,3.081,-12.197C3.209,-12.027,3.174,-11.785,3.004,-11.657C2.834,-11.529,2.592,-11.564,2.464,-11.734C2.051,-12.284,1.814,-12.36,1.757,-12.344C1.639,-12.307,1.316,-11.857,1.242,-10.234C1.242,-10.234,1.226,-9.861,1.226,-9.861C0.701,2.522,-1.043,9.336,-2.413,12.872C-2.472,13.025,-2.618,13.118,-2.772,13.118Z" /></g></g><g id="i3" transform="matrix(1,0,0,1,282.323,374.939)"><g id="i2"><path fill="#505c7b" d="M0.094,11.608C0.091,11.608,0.087,11.608,0.084,11.608C-0.129,11.603,-0.297,11.426,-0.292,11.213C-0.15,5.499,-0.289,2.112,-0.412,-0.876C-0.548,-4.196,-0.655,-6.819,-0.29,-11.254C-0.273,-11.467,-0.086,-11.622,0.125,-11.607C0.337,-11.589,0.495,-11.403,0.478,-11.191C0.117,-6.804,0.224,-4.202,0.359,-0.908C0.482,2.092,0.621,5.493,0.479,11.232C0.474,11.442,0.302,11.608,0.094,11.608Z" /></g></g><g id="i4" transform="matrix(1,0,0,1,293.821,373.971)"><g id="i2"><path fill="#505c7b" d="M1.497,12.159C1.486,12.159,1.477,12.159,1.466,12.158C1.254,12.141,1.095,11.955,1.112,11.743C1.324,9.116,0.772,5.807,0.239,2.607C-0.032,0.983,-0.287,-0.551,-0.439,-1.964C-0.636,-3.789,-0.937,-5.193,-1.229,-6.549C-1.605,-8.298,-1.929,-9.809,-1.929,-11.774C-1.929,-11.987,-1.757,-12.159,-1.544,-12.159C-1.331,-12.159,-1.159,-11.987,-1.159,-11.774C-1.159,-9.891,-0.842,-8.417,-0.475,-6.711C-0.193,-5.399,0.126,-3.912,0.327,-2.047C0.477,-0.657,0.731,0.868,1,2.481C1.541,5.727,2.101,9.083,1.881,11.804C1.865,12.006,1.696,12.159,1.497,12.159Z" /></g></g><g id="i5" transform="matrix(1,0,0,1,363.404,366.714)"><g id="i2"><path fill="#505c7b" d="M0.866,11.813C0.697,11.813,0.542,11.702,0.495,11.531C0.067,9.989,-1.395,-5.052,-1.241,-11.437C-1.235,-11.65,-1.049,-11.809,-0.846,-11.813C-0.633,-11.808,-0.465,-11.631,-0.47,-11.418C-0.631,-4.752,0.879,10.034,1.238,11.324C1.295,11.529,1.175,11.742,0.97,11.799C0.936,11.809,0.9,11.813,0.866,11.813Z" /></g></g><g id="i6" transform="matrix(1,0,0,1,374.679,357.635)"><g id="i2"><path fill="#505c7b" d="M6.028,24.493C5.88,24.493,5.738,24.406,5.675,24.262C4.757,22.175,2.498,15.464,1.188,8.682C0.351,4.351,-0.909,-0.407,-2.022,-4.606C-2.656,-6.999,-3.256,-9.259,-3.662,-11.029C-4.006,-12.528,-4.413,-13.914,-4.807,-15.255C-5.66,-18.157,-6.465,-20.899,-6.411,-24.114C-6.407,-24.325,-6.236,-24.493,-6.026,-24.493C-6.024,-24.493,-6.021,-24.493,-6.019,-24.493C-5.806,-24.489,-5.636,-24.314,-5.64,-24.101C-5.693,-21.003,-4.903,-18.316,-4.067,-15.472C-3.67,-14.121,-3.259,-12.723,-2.91,-11.201C-2.507,-9.444,-1.91,-7.19,-1.277,-4.803C-0.161,-0.593,1.103,4.179,1.945,8.536C3.244,15.257,5.475,21.893,6.381,23.952C6.467,24.147,6.378,24.374,6.183,24.46C6.132,24.482,6.08,24.493,6.028,24.493Z" /></g></g><g id="i7" transform="matrix(1,0,0,1,384.372,344.633)"><g id="i2"><path fill="#505c7b" d="M6.765,29.211C6.606,29.211,6.458,29.112,6.402,28.954C6.097,28.09,5.355,25.22,4.496,21.896C3.655,18.641,2.701,14.952,1.884,12.067C0.559,7.391,-0.758,1.696,-2.283,-4.897C-2.678,-6.606,-3.087,-8.373,-3.513,-10.193C-4.057,-12.523,-4.571,-14.539,-5.024,-16.318C-6.305,-21.347,-7.151,-24.669,-7.151,-28.826C-7.151,-29.039,-6.978,-29.211,-6.765,-29.211C-6.552,-29.211,-6.38,-29.039,-6.38,-28.826C-6.38,-24.766,-5.544,-21.481,-4.277,-16.509C-3.823,-14.727,-3.308,-12.706,-2.762,-10.369C-2.336,-8.548,-1.927,-6.781,-1.532,-5.071C-0.009,1.513,1.306,7.199,2.626,11.857C3.446,14.75,4.4,18.444,5.242,21.703C6.097,25.009,6.835,27.865,7.129,28.698C7.2,28.899,7.094,29.118,6.893,29.189C6.851,29.204,6.808,29.211,6.765,29.211Z" /></g></g><g id="i8" transform="matrix(1,0,0,1,271.604,353.925)"><g id="i2"><path fill="#505c7b" d="M-0.873,2.629C-2.746,2.629,-4.653,2.608,-6.594,2.568C-24.581,2.194,-38.282,0.207,-39.785,-0.019C-39.996,-0.051,-40.14,-0.247,-40.108,-0.458C-40.077,-0.669,-39.881,-0.816,-39.67,-0.782C-38.172,-0.557,-24.516,1.425,-6.578,1.798C12.087,2.185,27.631,0.701,39.625,-2.615C39.829,-2.672,40.042,-2.551,40.099,-2.346C40.156,-2.141,40.035,-1.929,39.83,-1.872C29.014,1.118,15.341,2.629,-0.873,2.629Z" /></g></g><g id="i9" transform="matrix(1,0,0,1,345.155,335.127)"><g id="i2"><path fill="#505c7b" d="M-26.242,14.192C-26.423,14.192,-26.585,14.064,-26.62,13.88C-26.66,13.671,-26.524,13.468,-26.315,13.428C-14.425,11.135,9.965,2.762,25.962,-14.072C26.108,-14.227,26.353,-14.233,26.507,-14.086C26.661,-13.939,26.668,-13.695,26.521,-13.541C18.983,-5.608,9.116,1.134,-2.806,6.497C-14.297,11.666,-23.593,13.688,-26.169,14.185C-26.194,14.19,-26.218,14.192,-26.242,14.192Z" /></g></g><g id="i10" transform="matrix(1,0,0,1,337.656,279.547)"><g id="i2"><path fill="#505c7b" d="M29.231,10.517C29.07,10.517,28.92,10.416,28.866,10.255C26.143,2.199,3.939,-5.865,-15.09,-8.342C-18.122,-8.736,-23.288,-9.248,-29.263,-9.747C-29.475,-9.765,-29.633,-9.952,-29.615,-10.164C-29.597,-10.376,-29.413,-10.53,-29.199,-10.516C-23.213,-10.016,-18.034,-9.502,-14.991,-9.106C-5.436,-7.862,4.824,-5.233,13.157,-1.893C19.709,0.734,27.88,4.931,29.596,10.008C29.664,10.21,29.556,10.428,29.355,10.496C29.314,10.51,29.272,10.517,29.231,10.517Z" /></g></g><g id="i11" transform="matrix(1,0,0,1,277.431,267.668)"><g id="i2"><path fill="#505c7b" d="M15.884,1.026C15.876,1.026,15.868,1.026,15.86,1.025C4.262,0.287,-6.716,-0.155,-15.888,-0.255C-16.101,-0.257,-16.271,-0.432,-16.269,-0.645C-16.267,-0.856,-16.095,-1.026,-15.884,-1.026C-15.883,-1.026,-15.882,-1.026,-15.88,-1.026C-6.695,-0.926,4.297,-0.482,15.908,0.256C16.121,0.27,16.283,0.453,16.269,0.665C16.256,0.869,16.086,1.026,15.884,1.026Z" /></g></g><g id="i12" transform="matrix(1,0,0,1,245.725,267.438)"><g id="i2"><path fill="#505c7b" d="M-11.189,0.817C-11.39,0.817,-11.559,0.661,-11.573,0.458C-11.588,0.245,-11.427,0.062,-11.215,0.047C-6.862,-0.256,-2.261,-0.496,2.461,-0.665C5.116,-0.76,8.052,-0.811,11.188,-0.817C11.188,-0.817,11.189,-0.817,11.189,-0.817C11.402,-0.817,11.573,-0.645,11.574,-0.432C11.575,-0.219,11.403,-0.047,11.19,-0.046C8.063,-0.04,5.135,0.011,2.489,0.106C-2.225,0.275,-6.818,0.514,-11.162,0.816C-11.171,0.817,-11.18,0.817,-11.189,0.817Z" /></g></g><g id="i13" transform="matrix(1,0,0,1,226.952,268.512)"><g id="i2"><path fill="#505c7b" d="M-4.079,0.767C-4.273,0.767,-4.441,0.621,-4.462,0.423C-4.485,0.211,-4.332,0.021,-4.12,-0.002C-1.52,-0.283,1.228,-0.54,4.048,-0.765C4.263,-0.782,4.446,-0.624,4.463,-0.412C4.48,-0.2,4.322,-0.014,4.11,0.003C1.297,0.228,-1.444,0.483,-4.037,0.764C-4.051,0.766,-4.065,0.767,-4.079,0.767Z" /></g></g><g id="i14" transform="matrix(1,0,0,1,217,269.638)"><g id="i2"><path fill="#505c7b" d="M-3.59,0.873C-3.777,0.873,-3.941,0.737,-3.971,0.547C-4.004,0.337,-3.86,0.139,-3.65,0.106C-1.438,-0.24,0.983,-0.567,3.545,-0.869C3.756,-0.897,3.948,-0.743,3.973,-0.532C3.998,-0.32,3.846,-0.129,3.635,-0.104C1.082,0.197,-1.328,0.524,-3.53,0.868C-3.55,0.871,-3.57,0.873,-3.59,0.873Z" /></g></g><g id="i2" transform="matrix(1,0,0,1,208.084,271.179)"><g id="i2"><path fill="#505c7b" d="M-3.565,1.152C-3.73,1.152,-3.884,1.046,-3.934,0.879C-3.996,0.675,-3.881,0.46,-3.677,0.398C-2.091,-0.082,0.458,-0.631,3.501,-1.147C3.711,-1.183,3.909,-1.041,3.945,-0.831C3.981,-0.621,3.84,-0.423,3.63,-0.387C0.618,0.124,-1.898,0.665,-3.454,1.136C-3.491,1.147,-3.528,1.152,-3.565,1.152Z" /></g></g></g><g id="i3" transform="matrix(1,0,0,1,245.171,280.467)"><g id="i2"><path fill="#505c7b" d="M-6.122,-5.691C-5.843,-6.48,-4.982,-6.416,-2.702,-6.209C-0.422,-6.002,3.95,-6.222,4.921,-6.341C5.892,-6.46,6.818,-6.216,6.724,-3.028C6.655,-0.671,6.724,2.172,6.447,3.836C6.17,5.5,6.274,6.264,1.836,6.333C-2.602,6.402,-6.866,6.54,-6.727,4.391C-6.652,3.226,-6.316,1.166,-6.207,-1.121C-6.115,-3.053,-6.258,-5.307,-6.122,-5.691Z" /></g></g><g id="i4" transform="matrix(1,0,0,1,0,0)"><g id="i14" transform="matrix(1,0,0,1,244.79,275.61)"><g id="i2"><path fill="#55c1e5" d="M1.381,0.782C-2.716,0.782,-3.728,0.584,-4.603,-0.092C-4.771,-0.222,-4.803,-0.465,-4.673,-0.633C-4.543,-0.801,-4.3,-0.832,-4.132,-0.702C-3.321,-0.075,-2.381,0.074,4.363,-0.012C4.365,-0.012,4.366,-0.012,4.368,-0.012C4.579,-0.012,4.75,0.158,4.753,0.369C4.756,0.582,4.586,0.756,4.373,0.759C3.224,0.774,2.235,0.782,1.381,0.782Z" /></g></g><g id="i2" transform="matrix(1,0,0,1,245.155,275.008)"><g id="i2"><path fill="#55c1e5" d="M0.016,1.384C-0.186,1.384,-0.357,1.227,-0.369,1.022C-0.441,-0.213,-0.371,-1.001,-0.368,-1.034C-0.349,-1.246,-0.162,-1.405,0.051,-1.382C0.263,-1.363,0.419,-1.175,0.4,-0.963C0.399,-0.955,0.332,-0.196,0.401,0.976C0.413,1.189,0.251,1.372,0.039,1.384C0.031,1.385,0.024,1.384,0.016,1.384Z" /></g></g></g><g id="i5" transform="matrix(1,0,0,1,0,0)"><g id="i9" transform="matrix(1,0,0,1,245.209,259.47)"><g id="i2"><path fill="#55c1e5" d="M1.184,1.155C-1.708,1.155,-4.917,0.637,-8.552,-0.399C-8.757,-0.457,-8.875,-0.67,-8.817,-0.875C-8.759,-1.079,-8.544,-1.198,-8.34,-1.14C-1.463,0.82,3.825,0.887,8.301,-0.93C8.498,-1.011,8.723,-0.915,8.803,-0.718C8.883,-0.521,8.788,-0.296,8.591,-0.216C6.341,0.697,3.902,1.155,1.184,1.155Z" /></g></g><g id="i10" transform="matrix(1,0,0,1,232.962,272.65)"><g id="i2"><path fill="#55c1e5" d="M3.41,14.335C3.348,14.335,3.284,14.32,3.225,14.288C0.264,12.668,-3.024,8.054,-3.696,1.398C-4.311,-4.69,-1.977,-10.816,0.61,-14.185C0.74,-14.354,0.982,-14.385,1.151,-14.256C1.32,-14.127,1.352,-13.884,1.222,-13.715C-0.639,-11.291,-3.608,-5.396,-2.929,1.321C-2.288,7.664,0.902,12.138,3.595,13.612C3.782,13.714,3.85,13.948,3.748,14.135C3.678,14.263,3.546,14.335,3.41,14.335Z" /></g></g><g id="i11" transform="matrix(1,0,0,1,251.314,278.747)"><g id="i2"><path fill="#55c1e5" d="M-4.093,10.038C-6.28,10.038,-8.787,9.834,-10.96,9.444C-11.17,9.406,-11.31,9.206,-11.272,8.996C-11.234,8.786,-11.033,8.648,-10.824,8.685C-7.256,9.325,-2.789,9.457,-0.432,8.993C2.751,8.366,8.577,2.576,10.108,-4.723C10.447,-6.339,10.571,-7.991,10.476,-9.63C10.463,-9.843,10.625,-10.024,10.838,-10.036C11.052,-10.053,11.233,-9.887,11.245,-9.674C11.344,-7.967,11.216,-6.248,10.863,-4.565C9.37,2.554,3.645,8.975,-0.283,9.749C-1.269,9.943,-2.607,10.038,-4.093,10.038Z" /></g></g><g id="i12" transform="matrix(1,0,0,1,260.034,262.214)"><g id="i2"><path fill="#55c1e5" d="M1.595,3.703C1.422,3.703,1.266,3.586,1.222,3.411C0.473,0.411,-0.875,-1.901,-1.886,-3.065C-2.026,-3.226,-2.009,-3.469,-1.848,-3.608C-1.688,-3.748,-1.444,-3.731,-1.305,-3.57C-0.235,-2.339,1.187,0.092,1.969,3.224C2.021,3.43,1.895,3.641,1.689,3.692C1.658,3.7,1.626,3.703,1.595,3.703Z" /></g></g><g id="i13" transform="matrix(1,0,0,1,245.035,256.374)"><g id="i2"><path fill="#55c1e5" d="M-9.693,1.443C-9.822,1.443,-9.948,1.378,-10.021,1.26C-10.133,1.079,-10.077,0.842,-9.896,0.73C-9.896,0.73,-9.821,0.684,-9.821,0.684C-7.311,-0.865,-6.465,-1.388,0.101,-1.442C3.763,-1.467,7.213,-0.98,9.822,-0.054C10.022,0.017,10.127,0.238,10.056,0.439C9.984,0.639,9.764,0.744,9.564,0.673C7.038,-0.224,3.684,-0.704,0.107,-0.671C-6.243,-0.618,-6.979,-0.164,-9.416,1.34C-9.416,1.34,-9.491,1.386,-9.491,1.386C-9.554,1.425,-9.624,1.443,-9.693,1.443Z" /></g></g><g id="i14" transform="matrix(1,0,0,1,237.165,283.921)"><g id="i2"><path fill="#55c1e5" d="M-1.392,0.623C-1.538,0.623,-1.678,0.54,-1.743,0.398C-1.831,0.205,-1.747,-0.023,-1.553,-0.112C-0.398,-0.64,1.325,-0.624,1.398,-0.623C1.611,-0.62,1.781,-0.446,1.778,-0.233C1.775,-0.022,1.604,0.148,1.393,0.148C1.39,0.148,1.401,0.148,1.366,0.148C1.169,0.148,-0.299,0.163,-1.232,0.589C-1.284,0.613,-1.338,0.623,-1.392,0.623Z" /></g></g><g id="i2" transform="matrix(1,0,0,1,252.613,284.414)"><g id="i2"><path fill="#55c1e5" d="M0.94,0.878C0.833,0.878,0.727,0.835,0.651,0.748C0.646,0.742,0.031,0.067,-1.006,-0.113C-1.216,-0.149,-1.356,-0.348,-1.32,-0.558C-1.284,-0.768,-1.086,-0.911,-0.874,-0.872C0.44,-0.645,1.197,0.202,1.229,0.238C1.37,0.398,1.355,0.641,1.195,0.782C1.122,0.846,1.03,0.878,0.94,0.878Z" /></g></g></g><g id="i6" transform="matrix(1,0,0,1,313.085,308.934)"><g id="i2"><path fill="#505c7b" d="M-7.011,-6.47C-6.33,-7.017,-4.572,-7.179,-2.399,-7.046C-0.226,-6.913,3.454,-7.043,4.829,-7.133C6.204,-7.223,7.604,-7.534,7.569,-4.607C7.534,-1.68,7.283,6.391,6.832,7.189C6.832,7.189,3.986,3.895,3.365,3.746C2.744,3.597,-0.803,3.552,-0.803,3.552C-0.803,3.552,-0.493,1.911,-0.759,1.778C-1.025,1.645,-7.57,2.287,-7.57,2.287C-7.57,2.287,-7.55,0.841,-7.41,-1.37C-7.278,-3.443,-7.274,-6.258,-7.011,-6.47Z" /></g></g><g id="i7" transform="matrix(1,0,0,1,0,0)"><g id="i8" transform="matrix(1,0,0,1,297.948,296.954)"><g id="i2"><path fill="#55c1e5" d="M0.045,12.41C-0.092,12.41,-0.225,12.337,-0.295,12.208C-4.3,4.798,-3.332,-5.263,2.06,-12.26C2.19,-12.428,2.432,-12.46,2.601,-12.33C2.77,-12.2,2.801,-11.959,2.671,-11.79C-2.541,-5.027,-3.482,4.691,0.383,11.842C0.484,12.029,0.415,12.263,0.228,12.364C0.17,12.396,0.107,12.41,0.045,12.41Z" /></g></g><g id="i9" transform="matrix(1,0,0,1,312.594,285.709)"><g id="i2"><path fill="#55c1e5" d="M1.801,1.348C0.812,1.348,-0.119,1.305,-0.899,1.251C-3.911,1.041,-5.862,0.571,-7.287,0.227C-8.192,0.009,-8.906,-0.163,-9.568,-0.195C-9.781,-0.205,-9.945,-0.385,-9.935,-0.598C-9.925,-0.811,-9.752,-0.976,-9.532,-0.965C-8.797,-0.93,-8.051,-0.75,-7.107,-0.522C-5.708,-0.185,-3.792,0.277,-0.845,0.482C4.181,0.831,7.96,0.194,9.266,-1.224C9.41,-1.38,9.654,-1.39,9.811,-1.246C9.968,-1.102,9.977,-0.859,9.833,-0.702C8.306,0.956,4.787,1.348,1.801,1.348Z" /></g></g><g id="i10" transform="matrix(1,0,0,1,312.82,282.339)"><g id="i2"><path fill="#55c1e5" d="M-10.746,1.409C-10.888,1.409,-11.025,1.33,-11.092,1.194C-11.186,1.003,-11.108,0.772,-10.917,0.678C-7.927,-0.795,-6.997,-1.187,-3.416,-1.354C0.396,-1.532,7.654,-1.32,10.892,0.002C11.089,0.083,11.184,0.308,11.103,0.505C11.023,0.702,10.798,0.797,10.601,0.716C7.478,-0.56,0.368,-0.759,-3.38,-0.585C-6.948,-0.419,-7.789,-0.004,-10.576,1.369C-10.631,1.396,-10.689,1.409,-10.746,1.409Z" /></g></g><g id="i11" transform="matrix(1,0,0,1,326.417,304.947)"><g id="i2"><path fill="#55c1e5" d="M-4.977,11.724C-5.113,11.724,-5.245,11.652,-5.315,11.524C-5.417,11.337,-5.35,11.104,-5.163,11.001C6.904,4.379,4.508,-9.682,4.195,-11.264C4.154,-11.473,4.289,-11.676,4.498,-11.717C4.706,-11.758,4.91,-11.623,4.951,-11.414C5.275,-9.776,7.756,4.791,-4.792,11.677C-4.851,11.709,-4.914,11.724,-4.977,11.724Z" /></g></g><g id="i12" transform="matrix(1,0,0,1,327.979,287.492)"><g id="i2"><path fill="#55c1e5" d="M2.324,4.017C2.161,4.017,2.011,3.914,1.958,3.751C0.987,0.749,0.101,-0.988,-2.579,-3.343C-2.739,-3.484,-2.755,-3.726,-2.614,-3.886C-2.473,-4.046,-2.23,-4.063,-2.07,-3.922C0.729,-1.462,1.695,0.435,2.691,3.513C2.757,3.715,2.645,3.934,2.443,3.999C2.404,4.012,2.363,4.017,2.324,4.017Z" /></g></g><g id="i13" transform="matrix(1,0,0,1,321.032,313.157)"><g id="i2"><path fill="#55c1e5" d="M1.115,0.863C1.003,0.863,0.893,0.815,0.817,0.722C0.793,0.694,0.174,-0.024,-1.135,-0.093C-1.348,-0.104,-1.511,-0.285,-1.5,-0.498C-1.489,-0.711,-1.316,-0.871,-1.095,-0.863C0.569,-0.775,1.379,0.193,1.413,0.234C1.548,0.399,1.524,0.641,1.359,0.776C1.287,0.834,1.201,0.863,1.115,0.863Z" /></g></g><g id="i14" transform="matrix(1,0,0,1,312.365,303.556)"><g id="i2"><path fill="#55c1e5" d="M-0.413,0.801C-3.724,0.801,-4.65,0.518,-5.084,-0.22C-5.192,-0.403,-5.13,-0.64,-4.947,-0.748C-4.763,-0.856,-4.528,-0.794,-4.42,-0.611C-4.032,0.048,-2.149,0.155,4.738,-0.092C4.951,-0.105,5.129,0.066,5.137,0.279C5.145,0.492,4.979,0.67,4.766,0.678C2.587,0.756,0.899,0.801,-0.413,0.801Z" /></g></g><g id="i2" transform="matrix(1,0,0,1,312.762,303.153)"><g id="i2"><path fill="#55c1e5" d="M0.005,1.204C-0.202,1.204,-0.373,1.039,-0.38,0.831C-0.381,0.8,-0.405,0.052,-0.38,-0.829C-0.374,-1.038,-0.203,-1.204,0.005,-1.204C0.009,-1.204,0.012,-1.204,0.016,-1.204C0.229,-1.198,0.397,-1.021,0.391,-0.808C0.367,0.049,0.391,0.798,0.391,0.806C0.398,1.019,0.231,1.197,0.018,1.204C0.014,1.204,0.009,1.204,0.005,1.204Z" /></g></g></g><g id="i8" transform="matrix(1,0,0,1,0,0)"><g id="i6" transform="matrix(1,0,0,1,240.074,319.045)"><g id="i2"><path fill="#ee5f80" d="M-2.992,1.185C-3.162,1.185,-3.318,1.072,-3.364,0.9C-3.419,0.694,-3.297,0.483,-3.091,0.428C-3.091,0.428,2.892,-1.173,2.892,-1.173C3.098,-1.227,3.309,-1.105,3.364,-0.9C3.419,-0.694,3.297,-0.483,3.091,-0.428C3.091,-0.428,-2.892,1.172,-2.892,1.172C-2.925,1.181,-2.959,1.185,-2.992,1.185Z" /></g></g><g id="i7" transform="matrix(1,0,0,1,221.542,310.307)"><g id="i2"><path fill="#ee5f80" d="M14.826,9.922C14.812,9.922,14.799,9.922,14.786,9.92C14.432,9.88,-13.397,-6.354,-13.66,-6.516C-14.606,-7.097,-14.703,-7.263,-14.883,-8.036C-14.954,-8.341,-15.052,-8.76,-15.281,-9.409C-15.352,-9.61,-15.247,-9.829,-15.046,-9.9C-14.845,-9.971,-14.625,-9.866,-14.554,-9.665C-14.311,-8.976,-14.204,-8.515,-14.133,-8.211C-13.997,-7.628,-13.997,-7.628,-13.256,-7.173C-11.589,-6.148,11.007,6.945,14.529,8.934C14.535,8.429,14.506,7.605,14.462,6.886C14.449,6.673,14.612,6.491,14.824,6.478C15.036,6.465,15.219,6.627,15.232,6.839C15.396,9.541,15.245,9.685,15.112,9.811C15.039,9.88,14.929,9.922,14.826,9.922Z" /></g></g><g id="i8" transform="matrix(1,0,0,1,229.442,302.481)"><g id="i2"><path fill="#ee5f80" d="M6.766,15.088C6.579,15.088,6.322,15.088,-8.304,6.639C-15.49,2.488,-22.702,-1.718,-22.774,-1.76C-22.908,-1.838,-22.982,-1.988,-22.962,-2.142C-22.942,-2.296,-22.832,-2.423,-22.683,-2.464C-22.262,-2.58,19.442,-14.095,22.462,-15.069C22.664,-15.133,22.882,-15.023,22.947,-14.821C23.012,-14.619,22.901,-14.401,22.698,-14.336C19.91,-13.437,-15.514,-3.645,-21.595,-1.965C-10.463,4.523,5.618,13.822,6.819,14.315C7.162,14.294,7.846,14.083,8.632,13.839C9.028,13.717,9.463,13.581,9.93,13.446C10.135,13.387,10.349,13.505,10.408,13.71C10.467,13.914,10.348,14.128,10.144,14.187C9.682,14.32,9.251,14.454,8.86,14.575C7.899,14.873,7.204,15.088,6.766,15.088Z" /></g></g><g id="i9" transform="matrix(1,0,0,1,256.79,288.415)"><g id="i2"><path fill="#ee5f80" d="M1.816,1.235C1.765,1.235,1.713,1.225,1.663,1.203C1.557,1.157,-0.946,0.067,-2.002,-0.512C-2.188,-0.614,-2.256,-0.848,-2.154,-1.035C-2.051,-1.222,-1.818,-1.29,-1.631,-1.188C-0.606,-0.626,1.944,0.486,1.97,0.497C2.165,0.582,2.255,0.809,2.17,1.004C2.107,1.149,1.965,1.235,1.816,1.235Z" /></g></g><g id="i10" transform="matrix(1,0,0,1,278.527,294.961)"><g id="i2"><path fill="#ee5f80" d="M12.717,6.945C12.676,6.945,12.633,6.938,12.592,6.924C6.811,4.945,-6.379,-2.189,-12.919,-6.231C-13.1,-6.343,-13.157,-6.581,-13.045,-6.762C-12.933,-6.943,-12.694,-6.998,-12.514,-6.887C-6.003,-2.864,7.111,4.233,12.842,6.195C13.043,6.264,13.151,6.483,13.082,6.684C13.027,6.844,12.877,6.945,12.717,6.945Z" /></g></g><g id="i11" transform="matrix(1,0,0,1,254.086,310.921)"><g id="i2"><path fill="#ee5f80" d="M-8.784,7.965C-9.086,7.965,-9.627,7.66,-12.013,6.238C-14.682,4.648,-18.714,2.245,-22.547,0.507C-28.748,-2.305,-37.53,-7.194,-37.618,-7.243C-37.804,-7.347,-37.871,-7.581,-37.767,-7.767C-37.663,-7.953,-37.429,-8.02,-37.243,-7.916C-37.155,-7.867,-28.4,-2.994,-22.229,-0.196C-18.357,1.56,-14.301,3.977,-11.618,5.576C-10.305,6.358,-9.063,7.098,-8.767,7.191C-8.482,7.14,-6.625,6.596,-4.483,5.968C1.601,4.184,11.784,1.197,18.156,-0.028C22.984,-0.957,27.284,-1.965,30.739,-2.775C33.717,-3.473,36.07,-4.025,37.382,-4.191C37.593,-4.217,37.786,-4.068,37.813,-3.857C37.84,-3.646,37.69,-3.454,37.479,-3.427C36.207,-3.266,33.871,-2.718,30.915,-2.025C27.454,-1.213,23.145,-0.203,18.302,0.728C11.966,1.946,1.406,5.044,-4.267,6.708C-7.741,7.727,-8.574,7.965,-8.784,7.965Z" /></g></g><g id="i12" transform="matrix(1,0,0,1,268.108,308.913)"><g id="i2"><path fill="#ee5f80" d="M-20.52,4.629C-20.695,4.629,-20.854,4.509,-20.895,4.331C-20.943,4.124,-20.813,3.917,-20.606,3.869C-18.58,3.4,-16.467,2.876,-14.228,2.322C-10.116,1.304,-5.455,0.151,0.164,-1.043C8.75,-2.868,20.346,-4.608,20.462,-4.625C20.671,-4.658,20.87,-4.512,20.901,-4.301C20.933,-4.09,20.787,-3.894,20.576,-3.863C20.46,-3.846,8.887,-2.108,0.324,-0.289C-5.282,0.903,-9.936,2.054,-14.042,3.07C-16.284,3.624,-18.401,4.148,-20.432,4.619C-20.461,4.626,-20.491,4.629,-20.52,4.629Z" /></g></g><g id="i13" transform="matrix(1,0,0,1,242.971,303.879)"><g id="i2"><path fill="#ee5f80" d="M6.322,4.512C5.029,4.512,3.549,4.305,2.925,3.453C2.162,2.413,2.708,1.655,3.07,1.154C3.341,0.778,3.491,0.552,3.405,0.278C3.205,-0.359,0.789,-0.428,-0.81,-0.474C-1.281,-0.488,-1.768,-0.502,-2.215,-0.526C-3.874,-0.615,-4.466,-1.194,-4.67,-1.664C-4.895,-2.182,-4.756,-2.799,-4.289,-3.357C-4.223,-3.435,-4.191,-3.489,-4.175,-3.522C-4.412,-3.682,-5.38,-3.825,-8.491,-3.683C-8.708,-3.673,-8.883,-3.837,-8.893,-4.05C-8.903,-4.263,-8.739,-4.443,-8.526,-4.453C-4.583,-4.634,-3.726,-4.391,-3.458,-3.849C-3.313,-3.556,-3.394,-3.224,-3.698,-2.861C-3.827,-2.707,-4.112,-2.312,-3.964,-1.971C-3.8,-1.593,-3.147,-1.348,-2.174,-1.296C-1.734,-1.272,-1.264,-1.259,-0.788,-1.245C1.559,-1.177,3.775,-1.113,4.14,0.047C4.346,0.703,3.985,1.203,3.695,1.605C3.303,2.148,3.134,2.433,3.547,2.997C4.203,3.891,6.899,3.824,8.446,3.571C8.658,3.537,8.855,3.679,8.889,3.889C8.923,4.099,8.781,4.297,8.571,4.332C8.363,4.366,7.407,4.512,6.322,4.512Z" /></g></g><g id="i14" transform="matrix(1,0,0,1,231.591,309.62)"><g id="i2"><path fill="#ee5f80" d="M11.277,7.95C11.213,7.95,11.146,7.933,11.086,7.899C10.901,7.794,10.837,7.559,10.942,7.374C11.04,7.201,11.138,7.032,11.233,6.869C11.573,6.284,12.034,5.488,12.017,5.239C11.409,4.767,3.359,-0.125,-1.684,-2.625C-6.668,-5.096,-12.474,-7.18,-12.532,-7.201C-12.732,-7.273,-12.837,-7.494,-12.765,-7.694C-12.693,-7.894,-12.472,-7.998,-12.272,-7.927C-12.214,-7.906,-6.366,-5.807,-1.342,-3.316C3.513,-0.909,12.13,4.258,12.583,4.711C13.085,5.213,12.588,6.07,11.9,7.256C11.806,7.418,11.709,7.584,11.612,7.755C11.541,7.88,11.411,7.95,11.277,7.95Z" /></g></g><g id="i2" transform="matrix(1,0,0,1,239.851,295.39)"><g id="i2"><path fill="#ee5f80" d="M-23.862,7.834C-23.868,7.834,-23.874,7.834,-23.88,7.834C-24.093,7.824,-24.258,7.644,-24.248,7.431C-24.165,5.605,-23.926,4.572,-23.538,4.36C-23.15,4.148,-15.354,1.947,-6.382,-0.26C3.044,-2.578,22.935,-7.538,23.737,-7.814C23.938,-7.882,24.158,-7.775,24.227,-7.574C24.296,-7.373,24.189,-7.154,23.988,-7.085C23.106,-6.782,2.35,-1.614,-6.198,0.489C-15.285,2.724,-22.341,4.742,-23.129,5.024C-23.244,5.255,-23.419,6.172,-23.478,7.467C-23.487,7.673,-23.657,7.834,-23.862,7.834Z" /></g></g></g><g id="i9" transform="matrix(1,0,0,1,0,0)"><g id="i14" transform="matrix(1,0,0,1,293.031,304.003)"><g id="i2"><path fill="#ee5f80" d="M0.001,2.054C-0.068,2.054,-0.137,2.036,-0.2,1.997C-0.381,1.885,-0.438,1.649,-0.326,1.468C0.147,0.705,0.431,0.246,-0.778,-1.445C-0.902,-1.618,-0.862,-1.858,-0.689,-1.982C-0.516,-2.106,-0.275,-2.066,-0.151,-1.893C1.252,0.069,0.951,0.871,0.332,1.871C0.259,1.989,0.131,2.054,0.001,2.054Z" /></g></g><g id="i2" transform="matrix(1,0,0,1,217.614,300.746)"><g id="i2"><path fill="#ee5f80" d="M0.731,1.285C0.687,1.285,0.642,1.278,0.598,1.262C0.564,1.25,-0.231,0.953,-0.737,0.535C-1.499,-0.095,-0.92,-0.826,-0.672,-1.139C-0.54,-1.306,-0.298,-1.334,-0.131,-1.202C0.036,-1.07,0.064,-0.828,-0.068,-0.661C-0.427,-0.208,-0.373,-0.164,-0.246,-0.059C0.158,0.274,0.858,0.535,0.865,0.538C1.064,0.612,1.167,0.834,1.093,1.034C1.036,1.19,0.888,1.285,0.731,1.285Z" /></g></g></g><g id="i10" transform="matrix(1,0,0,1,342.169,166.783)"><g id="i2"><path fill="#dc6637" d="M-8.069,0C-8.069,4.456,-4.456,8.069,0,8.069C4.456,8.069,8.069,4.456,8.069,0C8.069,-4.456,4.456,-8.069,0,-8.069C-4.456,-8.069,-8.069,-4.456,-8.069,0Z" /></g></g><g id="i11" transform="matrix(1,0,0,1,352.169,245.805)"><g id="i2"><path fill="#ee5f80" d="M1.568,5.495C1.058,5.495,0.553,5.396,0.061,5.198C-2.505,4.165,-4.522,0.63,-5.771,-5.026C-5.799,-5.154,-5.76,-5.288,-5.667,-5.381C-5.574,-5.474,-5.441,-5.514,-5.313,-5.486C0.845,-4.153,5.178,-1.424,5.726,1.467C5.959,2.698,5.428,3.816,4.229,4.615C3.352,5.2,2.452,5.495,1.568,5.495ZM-4.882,-4.599C-3.699,0.382,-1.851,3.597,0.349,4.483C1.461,4.93,2.622,4.76,3.801,3.974C4.739,3.348,5.144,2.531,4.969,1.61C4.58,-0.445,1.384,-3.124,-4.882,-4.599Z" /></g></g><g id="i12" transform="matrix(1,0,0,1,343.625,244.713)"><g id="i2"><path fill="#ee5f80" d="M-1.73,4.403C-2.091,4.403,-2.433,4.294,-2.743,4.079C-3.315,3.681,-3.592,3.031,-3.525,2.247C-3.371,0.453,-1.268,-2.381,2.987,-4.367C3.118,-4.428,3.271,-4.411,3.385,-4.323C3.499,-4.235,3.555,-4.09,3.529,-3.948C2.78,0.156,0.991,3.444,-0.922,4.233C-1.198,4.347,-1.469,4.403,-1.73,4.403ZM2.617,-3.325C-0.747,-1.575,-2.626,0.785,-2.757,2.313C-2.801,2.825,-2.648,3.206,-2.302,3.447C-1.985,3.667,-1.631,3.691,-1.216,3.52C0.094,2.979,1.776,0.481,2.617,-3.325Z" /></g></g><g id="i13" transform="matrix(1,0,0,1,307.71,270.3)"><path fill="#fbc89f" d="M0.12,-0.27C0.07,-0.09,0.01,0.09,-0.06,0.27C-0.06,0.27,-0.12,-0.02,-0.12,-0.02C-0.04,-0.1,0.04,-0.19,0.12,-0.27Z" /></g><g id="i14" transform="matrix(1,0,0,1,187.487,268.958)"><g id="i2"><path fill="#d3edf3" d="M-2.632,19.613C1.253,16.536,10.409,13.112,10.178,11.881C7.712,-1.273,4.177,-8.198,2.946,-11.045C1.715,-13.892,1.023,-17.277,0.638,-18.243C0.253,-19.209,-0.362,-19.662,-1.285,-19.624C-2.208,-19.586,-2.67,-18.277,-2.939,-18.046C-3.208,-17.815,-3.401,-17.623,-5.324,-16.969C-7.247,-16.315,-8.171,-15.969,-9.056,-15.815C-9.941,-15.661,-9.864,-14.969,-10.133,-13.546C-10.133,-13.546,-10.347,-11.3,-9.887,-9.008C-9.427,-6.717,-7.878,-3.31,-7.328,-1.089C-6.778,1.132,-6.085,7.082,-5.762,9.247C-5.439,11.412,-4.638,20.002,-2.632,19.613Z" /></g></g><g id="i2" transform="matrix(1,0,0,1,216.059,246.46)" opacity="0.25"><path fill="#505c7b" d="M4.201,4.83C4.201,4.83,2.021,-14.252,2.021,-14.252C2.021,-14.252,-1.633,-10.945,-4.201,-9.26C-4.201,-9.26,-4.198,-10.12,-4.078,-8.56C-3.958,-7,-3.797,12.992,-4.037,14.252C-3.295,13.172,4.201,4.83,4.201,4.83Z" /></g></g><g id="i67"><g transform="translate(304.843,266.067)"><g transform="rotate(-12)"><animateTransform repeatCount="indefinite" type="rotate" attributeName="transform" dur="7.241s" begin="0s" calcMode="spline" values="0; -12; 3; -12; 3; -12; 3; -12" keyTimes="0; 0.165899; 0.413208; 0.674263; 0.914705; 1; 1; 1" keySplines="0.333 0 0.667 1; 0.333 0 0.667 1; 0.333 0 0.667 1; 0.333 0 0.667 1; 0.333 0 0.667 1; 0.333 0 0.667 1; 0.333 0 0.667 1" fill="freeze" /><g transform="scale(1,1) translate(-304.843,-266.067)"><g id="i1" transform="matrix(1,0,0,1,295.313,251.504)"><path fill="#fbc89f" d="M10.897,1.476C12.727,6.836,14.147,13.446,12.517,18.526C12.437,18.606,12.357,18.696,12.277,18.776C10.307,20.806,8.807,22.336,8.647,22.396C8.167,22.586,5.667,22.486,4.447,22.396C3.227,22.296,1.567,21.076,-2.683,15.996C-6.933,10.906,-6.543,9.786,-7.133,6.616C-7.713,3.436,-8.693,-1.544,-10.013,-6.924C-10.643,-9.474,-12.023,-15.134,-13.233,-19.534C-11.523,-19.394,-8.983,-19.004,-5.923,-19.784C-2.403,-20.674,-1.043,-21.804,-0.273,-22.504C1.237,-18.304,3.057,-14.104,4.007,-12.074C4.937,-10.074,5.987,-8.864,6.467,-8.364C6.347,-8.244,6.327,-8.044,6.417,-7.894C6.607,-7.584,6.859,-7.304,6.977,-6.984C7.597,-5.294,9.668,-1.964,10.939,1.411C10.939,1.411,10.897,1.476,10.897,1.476Z" /></g><g id="i3" transform="matrix(1,0,0,1,281.226,207.454)"><g id="i2"><path fill="#fbc89f" d="M3.639,20.352C3.151,20.627,1.445,21.024,-0.011,21.873C-0.912,18.6,-1.592,16.168,-1.592,16.168C-1.592,16.168,-3.595,15.436,-5.988,14.46C-8.384,13.481,-11.363,10.696,-11.901,9.523C-12.439,8.353,-11.119,5.796,-11.119,5.796C-14.833,3.583,-10.916,-0.212,-10.916,-0.212C-12.86,-2.814,-12.683,-5.132,-12.198,-5.623C-11.715,-6.111,-10.534,-6.036,-10.534,-6.036C-10.534,-6.036,-11.266,-7.037,-12.198,-7.575C-13.133,-8.113,-14.1,-11.289,-13.268,-11.907C-12.439,-12.523,-10.19,-14.711,-9.605,-14.711C-7.625,-14.711,-6.673,-11.092,-6.967,-10.557C-7.258,-10.019,-8.773,-8.685,-8.773,-8.685C-8.773,-8.685,-7.893,-7.625,-5.988,-5.964C-5.988,-5.964,-2.033,-6.158,-1.179,-5.964C-0.325,-5.767,3.245,-4.169,3.245,-4.169C5.173,-5.018,7.009,-6.657,8.62,-10.274C10.231,-13.891,8.62,-20.425,8.62,-20.425C9.108,-21.792,13.31,-22.283,13.554,-21.501C13.798,-20.719,12.527,-16.761,12.333,-13.23C12.136,-9.702,12.624,-1.224,12.577,2.889C12.527,6.999,10.622,8.938,10.481,9.476C10.34,10.014,10.769,11.773,12.577,17.636C12.813,18.399,13.074,19.376,13.329,20.128C10.428,19.995,6.847,19.555,6.351,19.247C5.497,18.72,4.679,15.234,4.194,11.329C3.709,7.427,4.021,7.843,3.411,8.048C2.801,8.25,2.985,8.178,3.187,10.211C3.389,12.244,4.288,19.986,3.639,20.352Z" /></g></g><g id="i4" transform="matrix(1,0,0,1,286.912,223.752)"><g id="i2"><path fill="#505c7b" d="M-3.845,10.355C-6.747,10.355,-9.077,9.892,-10.093,9.045C-10.423,8.77,-10.601,8.459,-10.622,8.124C-10.733,6.355,-4.536,3.419,-4.011,3.226C-3.325,2.974,-3.325,2.975,-3.37,0.677C-3.378,0.286,-3.386,-0.166,-3.392,-0.685C-3.432,-4.262,-4.249,-8.63,-4.257,-8.674C-4.267,-8.728,-4.266,-8.784,-4.253,-8.837C-3.816,-10.632,-1.335,-10.344,-1.23,-10.331C-1.063,-10.31,-0.93,-10.184,-0.899,-10.019C-0.892,-9.984,-0.238,-6.457,0.37,-3.312C1.318,1.591,1.782,1.839,2.832,1.966C3.347,2.028,3.902,2.076,4.49,2.126C7.151,2.352,10.168,2.608,10.598,4.524C10.679,4.887,10.568,5.286,10.268,5.71C9.086,7.38,4.776,9.543,-0.127,10.126C-1.426,10.28,-2.682,10.355,-3.845,10.355ZM-3.484,-8.728C-3.367,-8.081,-2.659,-4.052,-2.621,-0.693C-2.615,-0.176,-2.607,0.271,-2.599,0.661C-2.552,3.074,-2.544,3.509,-3.746,3.95C-5.303,4.522,-9.908,7.192,-9.853,8.076C-9.844,8.22,-9.71,8.36,-9.599,8.452C-8.544,9.332,-4.983,9.928,-0.218,9.361C4.739,8.772,8.692,6.603,9.639,5.264C9.803,5.032,9.876,4.83,9.845,4.693C9.539,3.328,6.822,3.098,4.425,2.894C3.83,2.843,3.267,2.795,2.739,2.731C1.029,2.524,0.532,1.587,-0.387,-3.165C-0.893,-5.784,-1.432,-8.667,-1.602,-9.582C-2.123,-9.594,-3.228,-9.523,-3.484,-8.728Z" /></g></g><g id="i5" transform="matrix(1,0,0,1,281.571,198.496)"><g id="i2"><path fill="#ee5f80" d="M2.805,5.731C2.783,5.739,2.763,5.746,2.741,5.754C1.265,5.166,-0.933,4.303,-1.327,4.228C-1.782,4.142,-3.928,3.826,-6.335,3.859C-8.942,2.109,-10.174,0.37,-10.174,0.37C-10.174,0.37,-8.458,-0.926,-8.039,-1.816C-7.837,-2.251,-8.375,-3.199,-8.777,-3.657C-7.313,-3.244,-3.899,-3.144,0.045,-3.463C5.273,-3.887,9.462,-4.883,9.395,-5.69C9.395,-5.696,9.395,-5.698,9.392,-5.704C9.392,-5.704,10.171,-5.754,10.171,-5.754C10.171,-5.754,10.507,2.963,2.805,5.731Z" /></g></g><g id="i6" transform="matrix(1,0,0,1,280.048,184.758)"><g id="i2"><path fill="#505c7b" d="M5.205,19.568C5.066,19.568,4.932,19.492,4.863,19.36C4.765,19.171,4.838,18.938,5.027,18.84C8.961,16.789,11.31,12.731,11.31,7.985C11.31,4.672,9.459,-1.153,7.971,-5.834C7.643,-6.865,7.334,-7.839,7.066,-8.718C6.552,-10.403,6.099,-12.12,5.699,-13.636C5.125,-15.81,4.476,-18.27,4.103,-18.596C-0.108,-19.425,-8.636,-17.511,-10.851,-16.001C-11.262,-15.721,-11.295,-15.565,-11.296,-15.558C-11.367,-15.159,-11.2,-11.806,-11.039,-8.564C-10.875,-5.255,-10.688,-1.504,-10.635,1.134C-10.525,6.564,-10.428,7.059,-8.9,9.941C-8.8,10.129,-8.872,10.362,-9.06,10.462C-9.248,10.561,-9.481,10.49,-9.581,10.302C-11.174,7.297,-11.294,6.698,-11.406,1.15C-11.459,-1.477,-11.645,-5.222,-11.809,-8.526C-12.021,-12.793,-12.137,-15.229,-12.055,-15.692C-11.998,-16.015,-11.746,-16.324,-11.286,-16.638C-8.913,-18.256,-0.152,-20.24,4.291,-19.345C4.972,-19.208,5.375,-17.885,6.445,-13.832C6.843,-12.323,7.294,-10.613,7.803,-8.942C8.07,-8.067,8.379,-7.096,8.706,-6.067C10.21,-1.335,12.081,4.553,12.081,7.985C12.081,13.024,9.577,17.338,5.383,19.524C5.326,19.554,5.265,19.568,5.205,19.568ZM4.088,-18.608C4.088,-18.608,4.088,-18.608,4.088,-18.608C4.088,-18.608,4.088,-18.608,4.088,-18.608Z" /></g></g><g id="i7" transform="matrix(1,0,0,1,276.115,167.298)"><g id="i2"><path fill="#505c7b" d="M-5.863,2.173C-6.856,2.173,-7.24,2.015,-7.462,1.824C-7.627,1.682,-7.714,1.495,-7.714,1.283C-7.714,1.07,-7.541,0.897,-7.328,0.897C-7.125,0.897,-6.959,1.053,-6.944,1.252C-6.819,1.346,-6.111,1.619,-2.232,1.048C3.284,0.239,6.562,-0.89,6.924,-1.433C6.913,-1.442,6.898,-1.453,6.88,-1.465C6.702,-1.581,6.652,-1.82,6.768,-1.998C6.885,-2.177,7.124,-2.226,7.302,-2.11C7.408,-2.041,7.495,-1.963,7.561,-1.878C7.719,-1.677,7.757,-1.426,7.663,-1.191C7.019,0.426,-1.186,1.674,-2.119,1.811C-3.9,2.073,-5.074,2.173,-5.863,2.173ZM6.956,-1.401C6.956,-1.401,6.958,-1.401,6.958,-1.401C6.958,-1.401,6.956,-1.401,6.956,-1.401Z" /></g></g><g id="i8" transform="matrix(1,0,0,1,281.458,193.08)"><g id="i2"><path fill="#ee5f80" d="M-7.618,0.617C-7.561,1.325,-4.103,1.623,0.104,1.282C4.311,0.941,7.675,0.091,7.618,-0.617C7.561,-1.325,4.103,-1.623,-0.104,-1.282C-4.311,-0.941,-7.675,-0.091,-7.618,0.617Z" /></g></g><g id="i9" transform="matrix(1,0,0,1,272.965,201.431)"><g id="i2"><path fill="#2b2f53" d="M2.272,0.445C2.261,0.445,2.251,0.445,2.24,0.444C2.215,0.442,-0.305,0.238,-2.245,0.371C-2.454,0.385,-2.642,0.225,-2.656,0.012C-2.671,-0.2,-2.51,-0.383,-2.298,-0.398C-0.299,-0.534,2.198,-0.332,2.303,-0.324C2.515,-0.306,2.673,-0.12,2.656,0.092C2.639,0.293,2.47,0.445,2.272,0.445Z" /></g></g><g id="i10" transform="matrix(1,0,0,1,283.447,205.559)"><g id="i2"><path fill="#2b2f53" d="M0.879,2.661C-0.36,2.661,-2.879,2.357,-3.753,2.246C-3.964,2.219,-4.114,2.026,-4.087,1.815C-4.06,1.604,-3.872,1.454,-3.657,1.481C-1.521,1.751,0.902,1.972,1.257,1.873C1.733,1.721,3.238,0.247,3.321,-0.149C3.319,-0.271,3.078,-0.731,0.841,-1.936C0.654,-2.037,0.583,-2.271,0.684,-2.458C0.785,-2.646,1.02,-2.715,1.206,-2.615C3.309,-1.483,4.09,-0.809,4.09,-0.129C4.09,0.643,2.112,2.41,1.49,2.608C1.374,2.645,1.159,2.661,0.879,2.661Z" /></g></g><g id="i11" transform="matrix(1,0,0,1,278.712,210.759)"><g id="i2"><path fill="#2b2f53" d="M6.112,4.287C6.012,4.287,5.912,4.248,5.836,4.171C5.687,4.019,5.69,3.775,5.843,3.626C7.416,2.092,8.067,0.783,8.014,0.167C7.999,-0.005,7.935,-0.068,7.888,-0.1C7.211,-0.565,0.482,-3.156,-0.129,-3.353C-0.625,-3.513,-5.43,-3.708,-8.328,-3.137C-8.536,-3.096,-8.739,-3.232,-8.78,-3.441C-8.821,-3.65,-8.686,-3.853,-8.477,-3.894C-5.674,-4.446,-0.634,-4.326,0.108,-4.086C0.64,-3.914,7.506,-1.298,8.325,-0.735C8.593,-0.551,8.751,-0.261,8.782,0.102C8.868,1.105,7.97,2.628,6.381,4.178C6.306,4.251,6.209,4.287,6.112,4.287Z" /></g></g><g id="i12" transform="matrix(1,0,0,1,275.726,212.764)"><g id="i2"><path fill="#2b2f53" d="M-5.62,0.872C-5.691,0.872,-5.763,0.852,-5.827,0.811C-6.006,0.696,-6.059,0.458,-5.944,0.279C-5.109,-1.024,-4.3,-1,-1.62,-0.71C1.054,-0.421,6.005,0.103,6.005,0.103C6.005,0.103,5.924,0.87,5.924,0.87C5.924,0.87,0.973,0.346,-1.702,0.057C-4.43,-0.238,-4.732,-0.185,-5.295,0.694C-5.369,0.809,-5.493,0.872,-5.62,0.872Z" /></g></g><g id="i13" transform="matrix(1,0,0,1,277.882,216.231)"><g id="i2"><path fill="#2b2f53" d="M2.236,2.307C2.184,2.307,2.134,2.301,2.085,2.291C1.459,2.158,-2.579,1.732,-5.262,1.637C-5.475,1.629,-5.642,1.451,-5.634,1.238C-5.627,1.025,-5.445,0.856,-5.235,0.866C-2.558,0.96,1.527,1.384,2.245,1.537C2.358,1.536,2.843,1.321,3.437,0.756C4.33,-0.094,4.863,-1.095,4.863,-1.921C4.863,-2.134,5.036,-2.307,5.249,-2.307C5.462,-2.307,5.634,-2.134,5.634,-1.921C5.634,-0.509,4.538,0.88,3.599,1.64C3.21,1.955,2.676,2.307,2.236,2.307Z" /></g></g><g id="i14" transform="matrix(1,0,0,1,280.857,223.667)"><g id="i2"><path fill="#2b2f53" d="M-0.16,0.43C-0.547,0.43,-0.955,0.406,-1.303,0.333C-1.511,0.289,-1.645,0.084,-1.601,-0.124C-1.557,-0.332,-1.353,-0.466,-1.145,-0.422C-0.268,-0.238,1.159,-0.424,1.173,-0.426C1.383,-0.454,1.578,-0.307,1.606,-0.096C1.634,0.115,1.486,0.31,1.275,0.338C1.233,0.344,0.574,0.43,-0.16,0.43Z" /></g></g><g id="i2" transform="matrix(1,0,0,1,304.187,251.971)"><g id="i2"><path fill="#2b2f53" d="M2.513,8.559C2.513,8.769,2.343,8.949,2.133,8.949C1.923,8.949,1.743,8.779,1.743,8.569C1.623,-0.671,0.413,-3.661,-1.897,-7.451C-2.077,-7.741,-2.267,-8.051,-2.457,-8.361C-2.547,-8.511,-2.527,-8.711,-2.407,-8.831C-2.387,-8.851,-2.367,-8.871,-2.337,-8.891C-2.197,-8.981,-2.007,-8.961,-1.887,-8.861C-1.847,-8.831,-1.827,-8.801,-1.797,-8.761C0.093,-5.731,1.373,-3.481,2.013,0.979C2.013,0.989,2.013,0.999,2.023,1.009C2.313,2.999,2.473,5.429,2.513,8.559Z" /></g></g></g></g></g></g><g opacity="0.25" id="i68"><g transform="translate(244.762,273.72)"><g transform="rotate(7)"><animateTransform repeatCount="indefinite" type="rotate" attributeName="transform" dur="7.241s" begin="0s" calcMode="spline" values="-15; -15; 7; -15; 7; -15; 7; -15; 7; -15; 7; -15; 7; -15; 7; -15; 7; -15; 7; -15; 7; -15; 7; -15; 7; -15; 7; -15; 7; -15; 7" keyTimes="0; 0.129857; 0.165899; 0.20394; 0.238986; 0.277033; 0.311074; 0.349116; 0.383314; 0.42136; 0.456396; 0.494443; 0.528484; 0.562212; 0.597258; 0.635305; 0.669346; 0.707387; 0.741586; 0.779632; 0.814668; 0.852715; 0.886756; 0.917051; 0.952097; 0.990142; 1; 1; 1; 1; 1" keySplines="0 0 1 1; 0.333 0 0.667 1; 0.333 0 0.667 1; 0.333 0 0.667 1; 0.333 0 0.667 1; 0.333 0 0.667 1; 0.333 0 0.667 1; 0.333 0 0.667 1; 0.333 0 0.667 1; 0.333 0 0.667 1; 0.333 0 0.667 1; 0.333 0 0.667 1; 0.333 0 0.667 1; 0.333 0 0.667 1; 0.333 0 0.667 1; 0.333 0 0.667 1; 0.333 0 0.667 1; 0.333 0 0.667 1; 0.333 0 0.667 1; 0.333 0 0.667 1; 0.333 0 0.667 1; 0.333 0 0.667 1; 0.333 0 0.667 1; 0.333 0 0.667 1; 0.333 0 0.667 1; 0.333 0 0.667 1; 0.333 0 0.667 1; 0.333 0 0.667 1; 0.333 0 0.667 1; 0.333 0 0.667 1" fill="freeze" /><g transform="scale(1,1) translate(0.563,-4.625)"><g id="i2"><path fill="#ee5f80" d="M-0.186,-5.219C0.641,-5.473,1.162,-3.998,1.377,-2.491C1.592,-0.984,1.521,2.246,1.21,3.562C0.899,4.878,0.597,5.249,-0.174,5.247C-0.944,5.245,-1.326,5.07,-1.47,3.491C-1.614,1.912,-1.237,1.109,-0.872,-0.202C-0.154,-2.778,-0.888,-5.004,-0.186,-5.219Z" /></g></g></g></g></g><g opacity="0.25" id="i69"><g transform="translate(312.387,301.72)"><g transform="rotate(7)"><animateTransform repeatCount="indefinite" type="rotate" attributeName="transform" dur="7.241s" begin="0s" calcMode="spline" values="-15; -15; 7; -15; 7; -15; 7; -15; 7; -15; 7; -15; 7; -15; 7; -15; 7; -15; 7; -15; 7; -15; 7; -15; 7; -15; 7; -15; 7; -15; 7" keyTimes="0; 0.129857; 0.165899; 0.20394; 0.238986; 0.277033; 0.311074; 0.349116; 0.383314; 0.42136; 0.456396; 0.494443; 0.528484; 0.562212; 0.597258; 0.635305; 0.669346; 0.707387; 0.741586; 0.779632; 0.814668; 0.852715; 0.886756; 0.917051; 0.952097; 0.990142; 1; 1; 1; 1; 1" keySplines="0 0 1 1; 0.333 0 0.667 1; 0.333 0 0.667 1; 0.333 0 0.667 1; 0.333 0 0.667 1; 0.333 0 0.667 1; 0.333 0 0.667 1; 0.333 0 0.667 1; 0.333 0 0.667 1; 0.333 0 0.667 1; 0.333 0 0.667 1; 0.333 0 0.667 1; 0.333 0 0.667 1; 0.333 0 0.667 1; 0.333 0 0.667 1; 0.333 0 0.667 1; 0.333 0 0.667 1; 0.333 0 0.667 1; 0.333 0 0.667 1; 0.333 0 0.667 1; 0.333 0 0.667 1; 0.333 0 0.667 1; 0.333 0 0.667 1; 0.333 0 0.667 1; 0.333 0 0.667 1; 0.333 0 0.667 1; 0.333 0 0.667 1; 0.333 0 0.667 1; 0.333 0 0.667 1; 0.333 0 0.667 1" fill="freeze" /><g transform="scale(1,1) translate(0.563,-4.625)"><g id="i2"><path fill="#ee5f80" d="M-0.186,-5.219C0.641,-5.473,1.162,-3.998,1.377,-2.491C1.592,-0.984,1.521,2.246,1.21,3.562C0.899,4.878,0.597,5.249,-0.174,5.247C-0.944,5.245,-1.326,5.07,-1.47,3.491C-1.614,1.912,-1.237,1.109,-0.872,-0.202C-0.154,-2.778,-0.888,-5.004,-0.186,-5.219Z" /></g></g></g></g></g></svg>